<mxfile host="65bd71144e">
    <diagram name="Page-1" id="JrwnhxV34oBIkAG1Bqkx">
        <mxGraphModel dx="3985" dy="1898" grid="1" gridSize="10" guides="1" tooltips="1" connect="1" arrows="1" fold="1" page="1" pageScale="1" pageWidth="4000" pageHeight="2000" math="0" shadow="0">
            <root>
                <mxCell id="0"/>
                <mxCell id="1" parent="0"/>
                <mxCell id="8YwtS4Dz8LVOZNcVnMt_-1" value="" style="whiteSpace=wrap;html=1;aspect=fixed;movable=1;resizable=1;rotatable=1;deletable=1;editable=1;locked=0;connectable=1;strokeColor=#000000;fontColor=#ff7b00;" parent="1" vertex="1">
                    <mxGeometry x="1400" y="118" width="1765" height="1765" as="geometry"/>
                </mxCell>
                <mxCell id="8YwtS4Dz8LVOZNcVnMt_-2" value="&lt;font style=&quot;font-size: 50px;&quot;&gt;RPi&lt;/font&gt;" style="whiteSpace=wrap;html=1;aspect=fixed;" parent="1" vertex="1">
                    <mxGeometry x="3370" y="740" width="520" height="520" as="geometry"/>
                </mxCell>
                <mxCell id="8YwtS4Dz8LVOZNcVnMt_-3" value="" style="whiteSpace=wrap;html=1;aspect=fixed;" parent="1" vertex="1">
                    <mxGeometry x="100" y="375" width="1250" height="1250" as="geometry"/>
                </mxCell>
                <mxCell id="8YwtS4Dz8LVOZNcVnMt_-5" value="&lt;font style=&quot;font-size: 50px;&quot;&gt;TestChip 0&lt;/font&gt;" style="whiteSpace=wrap;html=1;aspect=fixed;" parent="1" vertex="1">
                    <mxGeometry x="430" y="1030" width="550" height="550" as="geometry"/>
                </mxCell>
                <mxCell id="fdX2yPgVDNq5wQi_LwHz-1" value="LS_CNT_0_1" style="whiteSpace=wrap;html=1;aspect=fixed;noLabel=0;labelPadding=0;" parent="1" vertex="1">
                    <mxGeometry x="1520" y="288" width="100" height="100" as="geometry"/>
                </mxCell>
                <mxCell id="fdX2yPgVDNq5wQi_LwHz-14" value="LS_CNT_0_2" style="whiteSpace=wrap;html=1;aspect=fixed;noLabel=0;labelPadding=0;" parent="1" vertex="1">
                    <mxGeometry x="1520" y="408" width="100" height="100" as="geometry"/>
                </mxCell>
                <mxCell id="fdX2yPgVDNq5wQi_LwHz-209" value="LS_CNT_1_7" style="whiteSpace=wrap;html=1;aspect=fixed;noLabel=0;labelPadding=0;" parent="1" vertex="1">
                    <mxGeometry x="1740" y="528" width="100" height="100" as="geometry"/>
                </mxCell>
                <mxCell id="fdX2yPgVDNq5wQi_LwHz-249" value="&lt;font style=&quot;font-size: 50px;&quot;&gt;TestChip 1&lt;/font&gt;" style="whiteSpace=wrap;html=1;aspect=fixed;" parent="1" vertex="1">
                    <mxGeometry x="430" y="423" width="550" height="550" as="geometry"/>
                </mxCell>
                <mxCell id="tn4qRuFnmqHaKZbaOXFV-144" value="" style="group" parent="1" vertex="1" connectable="0">
                    <mxGeometry x="1470" y="168" width="200" height="100" as="geometry"/>
                </mxCell>
                <mxCell id="8YwtS4Dz8LVOZNcVnMt_-6" value="LS_CNT_0_0" style="whiteSpace=wrap;html=1;aspect=fixed;noLabel=0;labelPadding=0;" parent="tn4qRuFnmqHaKZbaOXFV-144" vertex="1">
                    <mxGeometry x="50" width="100" height="100" as="geometry"/>
                </mxCell>
                <mxCell id="8YwtS4Dz8LVOZNcVnMt_-9" value="" style="endArrow=classic;html=1;rounded=0;" parent="tn4qRuFnmqHaKZbaOXFV-144" edge="1">
                    <mxGeometry relative="1" as="geometry">
                        <mxPoint y="20" as="sourcePoint"/>
                        <mxPoint x="50" y="20" as="targetPoint"/>
                    </mxGeometry>
                </mxCell>
                <mxCell id="8YwtS4Dz8LVOZNcVnMt_-10" value="CLK" style="edgeLabel;resizable=0;html=1;align=center;verticalAlign=middle;" parent="8YwtS4Dz8LVOZNcVnMt_-9" connectable="0" vertex="1">
                    <mxGeometry relative="1" as="geometry"/>
                </mxCell>
                <mxCell id="8YwtS4Dz8LVOZNcVnMt_-11" value="" style="endArrow=classic;html=1;rounded=0;" parent="tn4qRuFnmqHaKZbaOXFV-144" edge="1">
                    <mxGeometry relative="1" as="geometry">
                        <mxPoint y="40" as="sourcePoint"/>
                        <mxPoint x="50" y="40" as="targetPoint"/>
                    </mxGeometry>
                </mxCell>
                <mxCell id="8YwtS4Dz8LVOZNcVnMt_-12" value="RST" style="edgeLabel;resizable=0;html=1;align=center;verticalAlign=middle;" parent="8YwtS4Dz8LVOZNcVnMt_-11" connectable="0" vertex="1">
                    <mxGeometry relative="1" as="geometry"/>
                </mxCell>
                <mxCell id="8YwtS4Dz8LVOZNcVnMt_-13" value="" style="endArrow=classic;html=1;rounded=0;" parent="tn4qRuFnmqHaKZbaOXFV-144" edge="1">
                    <mxGeometry relative="1" as="geometry">
                        <mxPoint y="60" as="sourcePoint"/>
                        <mxPoint x="50" y="60" as="targetPoint"/>
                    </mxGeometry>
                </mxCell>
                <mxCell id="8YwtS4Dz8LVOZNcVnMt_-14" value="Q" style="edgeLabel;resizable=0;html=1;align=center;verticalAlign=middle;" parent="8YwtS4Dz8LVOZNcVnMt_-13" connectable="0" vertex="1">
                    <mxGeometry relative="1" as="geometry"/>
                </mxCell>
                <mxCell id="8YwtS4Dz8LVOZNcVnMt_-15" value="" style="endArrow=classic;html=1;rounded=0;" parent="tn4qRuFnmqHaKZbaOXFV-144" edge="1">
                    <mxGeometry relative="1" as="geometry">
                        <mxPoint y="80" as="sourcePoint"/>
                        <mxPoint x="50" y="80" as="targetPoint"/>
                    </mxGeometry>
                </mxCell>
                <mxCell id="8YwtS4Dz8LVOZNcVnMt_-16" value="DATA" style="edgeLabel;resizable=0;html=1;align=center;verticalAlign=middle;" parent="8YwtS4Dz8LVOZNcVnMt_-15" connectable="0" vertex="1">
                    <mxGeometry relative="1" as="geometry"/>
                </mxCell>
                <mxCell id="8YwtS4Dz8LVOZNcVnMt_-17" value="" style="endArrow=classic;html=1;rounded=0;strokeColor=#0000ff;" parent="tn4qRuFnmqHaKZbaOXFV-144" edge="1">
                    <mxGeometry relative="1" as="geometry">
                        <mxPoint x="150" y="40" as="sourcePoint"/>
                        <mxPoint x="200" y="40" as="targetPoint"/>
                    </mxGeometry>
                </mxCell>
                <mxCell id="8YwtS4Dz8LVOZNcVnMt_-18" value="ERR_CNT_0_0" style="edgeLabel;resizable=0;html=1;align=center;verticalAlign=middle;fontSize=5;fontColor=#0000FF;" parent="8YwtS4Dz8LVOZNcVnMt_-17" connectable="0" vertex="1">
                    <mxGeometry relative="1" as="geometry">
                        <mxPoint x="-5" as="offset"/>
                    </mxGeometry>
                </mxCell>
                <mxCell id="8YwtS4Dz8LVOZNcVnMt_-19" value="" style="endArrow=classic;html=1;rounded=0;strokeColor=#0000ff;" parent="tn4qRuFnmqHaKZbaOXFV-144" edge="1">
                    <mxGeometry relative="1" as="geometry">
                        <mxPoint x="150" y="60" as="sourcePoint"/>
                        <mxPoint x="200" y="60" as="targetPoint"/>
                    </mxGeometry>
                </mxCell>
                <mxCell id="8YwtS4Dz8LVOZNcVnMt_-20" value="&lt;font style=&quot;font-size: 5px;&quot;&gt;comp_out_0_0&lt;/font&gt;" style="edgeLabel;resizable=0;html=1;align=center;verticalAlign=middle;fontSize=7;fontColor=#0000FF;" parent="8YwtS4Dz8LVOZNcVnMt_-19" connectable="0" vertex="1">
                    <mxGeometry relative="1" as="geometry">
                        <mxPoint x="-5" as="offset"/>
                    </mxGeometry>
                </mxCell>
                <mxCell id="tn4qRuFnmqHaKZbaOXFV-145" value="" style="group" parent="1" vertex="1" connectable="0">
                    <mxGeometry x="1470" y="308" width="200" height="60" as="geometry"/>
                </mxCell>
                <mxCell id="fdX2yPgVDNq5wQi_LwHz-2" value="" style="endArrow=classic;html=1;rounded=0;" parent="tn4qRuFnmqHaKZbaOXFV-145" edge="1">
                    <mxGeometry relative="1" as="geometry">
                        <mxPoint as="sourcePoint"/>
                        <mxPoint x="50" as="targetPoint"/>
                    </mxGeometry>
                </mxCell>
                <mxCell id="fdX2yPgVDNq5wQi_LwHz-3" value="CLK" style="edgeLabel;resizable=0;html=1;align=center;verticalAlign=middle;" parent="fdX2yPgVDNq5wQi_LwHz-2" connectable="0" vertex="1">
                    <mxGeometry relative="1" as="geometry"/>
                </mxCell>
                <mxCell id="fdX2yPgVDNq5wQi_LwHz-4" value="" style="endArrow=classic;html=1;rounded=0;" parent="tn4qRuFnmqHaKZbaOXFV-145" edge="1">
                    <mxGeometry relative="1" as="geometry">
                        <mxPoint y="20" as="sourcePoint"/>
                        <mxPoint x="50" y="20" as="targetPoint"/>
                    </mxGeometry>
                </mxCell>
                <mxCell id="fdX2yPgVDNq5wQi_LwHz-5" value="RST" style="edgeLabel;resizable=0;html=1;align=center;verticalAlign=middle;" parent="fdX2yPgVDNq5wQi_LwHz-4" connectable="0" vertex="1">
                    <mxGeometry relative="1" as="geometry"/>
                </mxCell>
                <mxCell id="fdX2yPgVDNq5wQi_LwHz-6" value="" style="endArrow=classic;html=1;rounded=0;" parent="tn4qRuFnmqHaKZbaOXFV-145" edge="1">
                    <mxGeometry relative="1" as="geometry">
                        <mxPoint y="40" as="sourcePoint"/>
                        <mxPoint x="50" y="40" as="targetPoint"/>
                    </mxGeometry>
                </mxCell>
                <mxCell id="fdX2yPgVDNq5wQi_LwHz-7" value="Q" style="edgeLabel;resizable=0;html=1;align=center;verticalAlign=middle;" parent="fdX2yPgVDNq5wQi_LwHz-6" connectable="0" vertex="1">
                    <mxGeometry relative="1" as="geometry"/>
                </mxCell>
                <mxCell id="fdX2yPgVDNq5wQi_LwHz-8" value="" style="endArrow=classic;html=1;rounded=0;" parent="tn4qRuFnmqHaKZbaOXFV-145" edge="1">
                    <mxGeometry relative="1" as="geometry">
                        <mxPoint y="60" as="sourcePoint"/>
                        <mxPoint x="50" y="60" as="targetPoint"/>
                    </mxGeometry>
                </mxCell>
                <mxCell id="fdX2yPgVDNq5wQi_LwHz-9" value="DATA" style="edgeLabel;resizable=0;html=1;align=center;verticalAlign=middle;" parent="fdX2yPgVDNq5wQi_LwHz-8" connectable="0" vertex="1">
                    <mxGeometry relative="1" as="geometry"/>
                </mxCell>
                <mxCell id="fdX2yPgVDNq5wQi_LwHz-10" value="" style="endArrow=classic;html=1;rounded=0;strokeColor=#0000ff;" parent="tn4qRuFnmqHaKZbaOXFV-145" edge="1">
                    <mxGeometry relative="1" as="geometry">
                        <mxPoint x="150" y="20" as="sourcePoint"/>
                        <mxPoint x="200" y="20" as="targetPoint"/>
                    </mxGeometry>
                </mxCell>
                <mxCell id="fdX2yPgVDNq5wQi_LwHz-11" value="ERR_CNT_0_1" style="edgeLabel;resizable=0;html=1;align=center;verticalAlign=middle;fontSize=5;fontColor=#0000FF;" parent="fdX2yPgVDNq5wQi_LwHz-10" connectable="0" vertex="1">
                    <mxGeometry relative="1" as="geometry">
                        <mxPoint x="-5" as="offset"/>
                    </mxGeometry>
                </mxCell>
                <mxCell id="fdX2yPgVDNq5wQi_LwHz-12" value="" style="endArrow=classic;html=1;rounded=0;strokeColor=#0000ff;" parent="tn4qRuFnmqHaKZbaOXFV-145" edge="1">
                    <mxGeometry relative="1" as="geometry">
                        <mxPoint x="150" y="40" as="sourcePoint"/>
                        <mxPoint x="200" y="40" as="targetPoint"/>
                    </mxGeometry>
                </mxCell>
                <mxCell id="fdX2yPgVDNq5wQi_LwHz-13" value="&lt;font style=&quot;font-size: 5px;&quot;&gt;comp_out_0_1&lt;br&gt;&lt;/font&gt;" style="edgeLabel;resizable=0;html=1;align=center;verticalAlign=middle;fontSize=7;fontColor=#0000FF;" parent="fdX2yPgVDNq5wQi_LwHz-12" connectable="0" vertex="1">
                    <mxGeometry relative="1" as="geometry">
                        <mxPoint x="-5" as="offset"/>
                    </mxGeometry>
                </mxCell>
                <mxCell id="tn4qRuFnmqHaKZbaOXFV-146" value="" style="group" parent="1" vertex="1" connectable="0">
                    <mxGeometry x="1470" y="428" width="200" height="60" as="geometry"/>
                </mxCell>
                <mxCell id="fdX2yPgVDNq5wQi_LwHz-15" value="" style="endArrow=classic;html=1;rounded=0;" parent="tn4qRuFnmqHaKZbaOXFV-146" edge="1">
                    <mxGeometry relative="1" as="geometry">
                        <mxPoint as="sourcePoint"/>
                        <mxPoint x="50" as="targetPoint"/>
                    </mxGeometry>
                </mxCell>
                <mxCell id="fdX2yPgVDNq5wQi_LwHz-16" value="CLK" style="edgeLabel;resizable=0;html=1;align=center;verticalAlign=middle;" parent="fdX2yPgVDNq5wQi_LwHz-15" connectable="0" vertex="1">
                    <mxGeometry relative="1" as="geometry"/>
                </mxCell>
                <mxCell id="fdX2yPgVDNq5wQi_LwHz-17" value="" style="endArrow=classic;html=1;rounded=0;" parent="tn4qRuFnmqHaKZbaOXFV-146" edge="1">
                    <mxGeometry relative="1" as="geometry">
                        <mxPoint y="20" as="sourcePoint"/>
                        <mxPoint x="50" y="20" as="targetPoint"/>
                    </mxGeometry>
                </mxCell>
                <mxCell id="fdX2yPgVDNq5wQi_LwHz-18" value="RST" style="edgeLabel;resizable=0;html=1;align=center;verticalAlign=middle;" parent="fdX2yPgVDNq5wQi_LwHz-17" connectable="0" vertex="1">
                    <mxGeometry relative="1" as="geometry"/>
                </mxCell>
                <mxCell id="fdX2yPgVDNq5wQi_LwHz-19" value="" style="endArrow=classic;html=1;rounded=0;" parent="tn4qRuFnmqHaKZbaOXFV-146" edge="1">
                    <mxGeometry relative="1" as="geometry">
                        <mxPoint y="40" as="sourcePoint"/>
                        <mxPoint x="50" y="40" as="targetPoint"/>
                    </mxGeometry>
                </mxCell>
                <mxCell id="fdX2yPgVDNq5wQi_LwHz-20" value="Q" style="edgeLabel;resizable=0;html=1;align=center;verticalAlign=middle;" parent="fdX2yPgVDNq5wQi_LwHz-19" connectable="0" vertex="1">
                    <mxGeometry relative="1" as="geometry"/>
                </mxCell>
                <mxCell id="fdX2yPgVDNq5wQi_LwHz-21" value="" style="endArrow=classic;html=1;rounded=0;" parent="tn4qRuFnmqHaKZbaOXFV-146" edge="1">
                    <mxGeometry relative="1" as="geometry">
                        <mxPoint y="60" as="sourcePoint"/>
                        <mxPoint x="50" y="60" as="targetPoint"/>
                    </mxGeometry>
                </mxCell>
                <mxCell id="fdX2yPgVDNq5wQi_LwHz-22" value="DATA" style="edgeLabel;resizable=0;html=1;align=center;verticalAlign=middle;" parent="fdX2yPgVDNq5wQi_LwHz-21" connectable="0" vertex="1">
                    <mxGeometry relative="1" as="geometry"/>
                </mxCell>
                <mxCell id="fdX2yPgVDNq5wQi_LwHz-23" value="" style="endArrow=classic;html=1;rounded=0;strokeColor=#0000FF;" parent="tn4qRuFnmqHaKZbaOXFV-146" edge="1">
                    <mxGeometry relative="1" as="geometry">
                        <mxPoint x="150" y="20" as="sourcePoint"/>
                        <mxPoint x="200" y="20" as="targetPoint"/>
                    </mxGeometry>
                </mxCell>
                <mxCell id="fdX2yPgVDNq5wQi_LwHz-24" value="ERR_CNT_0_2" style="edgeLabel;resizable=0;html=1;align=center;verticalAlign=middle;fontSize=5;fontColor=#0000FF;" parent="fdX2yPgVDNq5wQi_LwHz-23" connectable="0" vertex="1">
                    <mxGeometry relative="1" as="geometry">
                        <mxPoint x="-5" as="offset"/>
                    </mxGeometry>
                </mxCell>
                <mxCell id="fdX2yPgVDNq5wQi_LwHz-25" value="" style="endArrow=classic;html=1;rounded=0;strokeColor=#0000ff;" parent="tn4qRuFnmqHaKZbaOXFV-146" edge="1">
                    <mxGeometry relative="1" as="geometry">
                        <mxPoint x="150" y="40" as="sourcePoint"/>
                        <mxPoint x="200" y="40" as="targetPoint"/>
                    </mxGeometry>
                </mxCell>
                <mxCell id="fdX2yPgVDNq5wQi_LwHz-26" value="&lt;font style=&quot;font-size: 5px;&quot;&gt;comp_out_0_2&lt;br&gt;&lt;/font&gt;" style="edgeLabel;resizable=0;html=1;align=center;verticalAlign=middle;fontSize=7;fontColor=#0000FF;" parent="fdX2yPgVDNq5wQi_LwHz-25" connectable="0" vertex="1">
                    <mxGeometry relative="1" as="geometry">
                        <mxPoint x="-5" as="offset"/>
                    </mxGeometry>
                </mxCell>
                <mxCell id="tn4qRuFnmqHaKZbaOXFV-147" value="" style="group" parent="1" vertex="1" connectable="0">
                    <mxGeometry x="1470" y="528" width="200" height="100" as="geometry"/>
                </mxCell>
                <mxCell id="fdX2yPgVDNq5wQi_LwHz-27" value="LS_CNT_0_3" style="whiteSpace=wrap;html=1;aspect=fixed;noLabel=0;labelPadding=0;" parent="tn4qRuFnmqHaKZbaOXFV-147" vertex="1">
                    <mxGeometry x="50" width="100" height="100" as="geometry"/>
                </mxCell>
                <mxCell id="fdX2yPgVDNq5wQi_LwHz-28" value="" style="endArrow=classic;html=1;rounded=0;" parent="tn4qRuFnmqHaKZbaOXFV-147" edge="1">
                    <mxGeometry relative="1" as="geometry">
                        <mxPoint y="20" as="sourcePoint"/>
                        <mxPoint x="50" y="20" as="targetPoint"/>
                    </mxGeometry>
                </mxCell>
                <mxCell id="fdX2yPgVDNq5wQi_LwHz-29" value="CLK" style="edgeLabel;resizable=0;html=1;align=center;verticalAlign=middle;" parent="fdX2yPgVDNq5wQi_LwHz-28" connectable="0" vertex="1">
                    <mxGeometry relative="1" as="geometry"/>
                </mxCell>
                <mxCell id="fdX2yPgVDNq5wQi_LwHz-30" value="" style="endArrow=classic;html=1;rounded=0;" parent="tn4qRuFnmqHaKZbaOXFV-147" edge="1">
                    <mxGeometry relative="1" as="geometry">
                        <mxPoint y="40" as="sourcePoint"/>
                        <mxPoint x="50" y="40" as="targetPoint"/>
                    </mxGeometry>
                </mxCell>
                <mxCell id="fdX2yPgVDNq5wQi_LwHz-31" value="RST" style="edgeLabel;resizable=0;html=1;align=center;verticalAlign=middle;" parent="fdX2yPgVDNq5wQi_LwHz-30" connectable="0" vertex="1">
                    <mxGeometry relative="1" as="geometry"/>
                </mxCell>
                <mxCell id="fdX2yPgVDNq5wQi_LwHz-32" value="" style="endArrow=classic;html=1;rounded=0;" parent="tn4qRuFnmqHaKZbaOXFV-147" edge="1">
                    <mxGeometry relative="1" as="geometry">
                        <mxPoint y="60" as="sourcePoint"/>
                        <mxPoint x="50" y="60" as="targetPoint"/>
                    </mxGeometry>
                </mxCell>
                <mxCell id="fdX2yPgVDNq5wQi_LwHz-33" value="Q" style="edgeLabel;resizable=0;html=1;align=center;verticalAlign=middle;" parent="fdX2yPgVDNq5wQi_LwHz-32" connectable="0" vertex="1">
                    <mxGeometry relative="1" as="geometry"/>
                </mxCell>
                <mxCell id="fdX2yPgVDNq5wQi_LwHz-34" value="" style="endArrow=classic;html=1;rounded=0;" parent="tn4qRuFnmqHaKZbaOXFV-147" edge="1">
                    <mxGeometry relative="1" as="geometry">
                        <mxPoint y="80" as="sourcePoint"/>
                        <mxPoint x="50" y="80" as="targetPoint"/>
                    </mxGeometry>
                </mxCell>
                <mxCell id="fdX2yPgVDNq5wQi_LwHz-35" value="DATA" style="edgeLabel;resizable=0;html=1;align=center;verticalAlign=middle;" parent="fdX2yPgVDNq5wQi_LwHz-34" connectable="0" vertex="1">
                    <mxGeometry relative="1" as="geometry"/>
                </mxCell>
                <mxCell id="fdX2yPgVDNq5wQi_LwHz-36" value="" style="endArrow=classic;html=1;rounded=0;strokeColor=#0000ff;" parent="tn4qRuFnmqHaKZbaOXFV-147" edge="1">
                    <mxGeometry relative="1" as="geometry">
                        <mxPoint x="150" y="40" as="sourcePoint"/>
                        <mxPoint x="200" y="40" as="targetPoint"/>
                    </mxGeometry>
                </mxCell>
                <mxCell id="fdX2yPgVDNq5wQi_LwHz-37" value="ERR_CNT_0_3" style="edgeLabel;resizable=0;html=1;align=center;verticalAlign=middle;fontSize=5;fontColor=#0000FF;" parent="fdX2yPgVDNq5wQi_LwHz-36" connectable="0" vertex="1">
                    <mxGeometry relative="1" as="geometry">
                        <mxPoint x="-5" as="offset"/>
                    </mxGeometry>
                </mxCell>
                <mxCell id="fdX2yPgVDNq5wQi_LwHz-38" value="" style="endArrow=classic;html=1;rounded=0;strokeColor=#0000ff;" parent="tn4qRuFnmqHaKZbaOXFV-147" edge="1">
                    <mxGeometry relative="1" as="geometry">
                        <mxPoint x="150" y="60" as="sourcePoint"/>
                        <mxPoint x="200" y="60" as="targetPoint"/>
                    </mxGeometry>
                </mxCell>
                <mxCell id="fdX2yPgVDNq5wQi_LwHz-39" value="&lt;font style=&quot;font-size: 5px;&quot;&gt;comp_out_0_3&lt;/font&gt;" style="edgeLabel;resizable=0;html=1;align=center;verticalAlign=middle;fontSize=7;fontColor=#0000FF;" parent="fdX2yPgVDNq5wQi_LwHz-38" connectable="0" vertex="1">
                    <mxGeometry relative="1" as="geometry">
                        <mxPoint x="-5" as="offset"/>
                    </mxGeometry>
                </mxCell>
                <mxCell id="tn4qRuFnmqHaKZbaOXFV-148" value="" style="group" parent="1" vertex="1" connectable="0">
                    <mxGeometry x="1470" y="648" width="200" height="100" as="geometry"/>
                </mxCell>
                <mxCell id="fdX2yPgVDNq5wQi_LwHz-40" value="LS_CNT_0_4" style="whiteSpace=wrap;html=1;aspect=fixed;noLabel=0;labelPadding=0;" parent="tn4qRuFnmqHaKZbaOXFV-148" vertex="1">
                    <mxGeometry x="50" width="100" height="100" as="geometry"/>
                </mxCell>
                <mxCell id="fdX2yPgVDNq5wQi_LwHz-41" value="" style="endArrow=classic;html=1;rounded=0;" parent="tn4qRuFnmqHaKZbaOXFV-148" edge="1">
                    <mxGeometry relative="1" as="geometry">
                        <mxPoint y="20" as="sourcePoint"/>
                        <mxPoint x="50" y="20" as="targetPoint"/>
                    </mxGeometry>
                </mxCell>
                <mxCell id="fdX2yPgVDNq5wQi_LwHz-42" value="CLK" style="edgeLabel;resizable=0;html=1;align=center;verticalAlign=middle;" parent="fdX2yPgVDNq5wQi_LwHz-41" connectable="0" vertex="1">
                    <mxGeometry relative="1" as="geometry"/>
                </mxCell>
                <mxCell id="fdX2yPgVDNq5wQi_LwHz-43" value="" style="endArrow=classic;html=1;rounded=0;" parent="tn4qRuFnmqHaKZbaOXFV-148" edge="1">
                    <mxGeometry relative="1" as="geometry">
                        <mxPoint y="40" as="sourcePoint"/>
                        <mxPoint x="50" y="40" as="targetPoint"/>
                    </mxGeometry>
                </mxCell>
                <mxCell id="fdX2yPgVDNq5wQi_LwHz-44" value="RST" style="edgeLabel;resizable=0;html=1;align=center;verticalAlign=middle;" parent="fdX2yPgVDNq5wQi_LwHz-43" connectable="0" vertex="1">
                    <mxGeometry relative="1" as="geometry"/>
                </mxCell>
                <mxCell id="fdX2yPgVDNq5wQi_LwHz-45" value="" style="endArrow=classic;html=1;rounded=0;" parent="tn4qRuFnmqHaKZbaOXFV-148" edge="1">
                    <mxGeometry relative="1" as="geometry">
                        <mxPoint y="60" as="sourcePoint"/>
                        <mxPoint x="50" y="60" as="targetPoint"/>
                    </mxGeometry>
                </mxCell>
                <mxCell id="fdX2yPgVDNq5wQi_LwHz-46" value="Q" style="edgeLabel;resizable=0;html=1;align=center;verticalAlign=middle;" parent="fdX2yPgVDNq5wQi_LwHz-45" connectable="0" vertex="1">
                    <mxGeometry relative="1" as="geometry"/>
                </mxCell>
                <mxCell id="fdX2yPgVDNq5wQi_LwHz-47" value="" style="endArrow=classic;html=1;rounded=0;" parent="tn4qRuFnmqHaKZbaOXFV-148" edge="1">
                    <mxGeometry relative="1" as="geometry">
                        <mxPoint y="80" as="sourcePoint"/>
                        <mxPoint x="50" y="80" as="targetPoint"/>
                    </mxGeometry>
                </mxCell>
                <mxCell id="fdX2yPgVDNq5wQi_LwHz-48" value="DATA" style="edgeLabel;resizable=0;html=1;align=center;verticalAlign=middle;" parent="fdX2yPgVDNq5wQi_LwHz-47" connectable="0" vertex="1">
                    <mxGeometry relative="1" as="geometry"/>
                </mxCell>
                <mxCell id="fdX2yPgVDNq5wQi_LwHz-49" value="" style="endArrow=classic;html=1;rounded=0;strokeColor=#0000ff;" parent="tn4qRuFnmqHaKZbaOXFV-148" edge="1">
                    <mxGeometry relative="1" as="geometry">
                        <mxPoint x="150" y="40" as="sourcePoint"/>
                        <mxPoint x="200" y="40" as="targetPoint"/>
                    </mxGeometry>
                </mxCell>
                <mxCell id="fdX2yPgVDNq5wQi_LwHz-50" value="ERR_CNT_0_4" style="edgeLabel;resizable=0;html=1;align=center;verticalAlign=middle;fontSize=5;fontColor=#0000FF;" parent="fdX2yPgVDNq5wQi_LwHz-49" connectable="0" vertex="1">
                    <mxGeometry relative="1" as="geometry">
                        <mxPoint x="-5" as="offset"/>
                    </mxGeometry>
                </mxCell>
                <mxCell id="fdX2yPgVDNq5wQi_LwHz-51" value="" style="endArrow=classic;html=1;rounded=0;strokeColor=#0000ff;" parent="tn4qRuFnmqHaKZbaOXFV-148" edge="1">
                    <mxGeometry relative="1" as="geometry">
                        <mxPoint x="150" y="60" as="sourcePoint"/>
                        <mxPoint x="200" y="60" as="targetPoint"/>
                    </mxGeometry>
                </mxCell>
                <mxCell id="fdX2yPgVDNq5wQi_LwHz-52" value="&lt;font style=&quot;font-size: 5px;&quot;&gt;comp_out_0_4&lt;br&gt;&lt;/font&gt;" style="edgeLabel;resizable=0;html=1;align=center;verticalAlign=middle;fontSize=7;fontColor=#0000FF;" parent="fdX2yPgVDNq5wQi_LwHz-51" connectable="0" vertex="1">
                    <mxGeometry relative="1" as="geometry">
                        <mxPoint x="-5" as="offset"/>
                    </mxGeometry>
                </mxCell>
                <mxCell id="tn4qRuFnmqHaKZbaOXFV-149" value="" style="group" parent="1" vertex="1" connectable="0">
                    <mxGeometry x="1470" y="768" width="200" height="100" as="geometry"/>
                </mxCell>
                <mxCell id="fdX2yPgVDNq5wQi_LwHz-53" value="LS_CNT_0_5" style="whiteSpace=wrap;html=1;aspect=fixed;noLabel=0;labelPadding=0;" parent="tn4qRuFnmqHaKZbaOXFV-149" vertex="1">
                    <mxGeometry x="50" width="100" height="100" as="geometry"/>
                </mxCell>
                <mxCell id="fdX2yPgVDNq5wQi_LwHz-54" value="" style="endArrow=classic;html=1;rounded=0;" parent="tn4qRuFnmqHaKZbaOXFV-149" edge="1">
                    <mxGeometry relative="1" as="geometry">
                        <mxPoint y="20" as="sourcePoint"/>
                        <mxPoint x="50" y="20" as="targetPoint"/>
                    </mxGeometry>
                </mxCell>
                <mxCell id="fdX2yPgVDNq5wQi_LwHz-55" value="CLK" style="edgeLabel;resizable=0;html=1;align=center;verticalAlign=middle;" parent="fdX2yPgVDNq5wQi_LwHz-54" connectable="0" vertex="1">
                    <mxGeometry relative="1" as="geometry"/>
                </mxCell>
                <mxCell id="fdX2yPgVDNq5wQi_LwHz-56" value="" style="endArrow=classic;html=1;rounded=0;" parent="tn4qRuFnmqHaKZbaOXFV-149" edge="1">
                    <mxGeometry relative="1" as="geometry">
                        <mxPoint y="40" as="sourcePoint"/>
                        <mxPoint x="50" y="40" as="targetPoint"/>
                    </mxGeometry>
                </mxCell>
                <mxCell id="fdX2yPgVDNq5wQi_LwHz-57" value="RST" style="edgeLabel;resizable=0;html=1;align=center;verticalAlign=middle;" parent="fdX2yPgVDNq5wQi_LwHz-56" connectable="0" vertex="1">
                    <mxGeometry relative="1" as="geometry"/>
                </mxCell>
                <mxCell id="fdX2yPgVDNq5wQi_LwHz-58" value="" style="endArrow=classic;html=1;rounded=0;" parent="tn4qRuFnmqHaKZbaOXFV-149" edge="1">
                    <mxGeometry relative="1" as="geometry">
                        <mxPoint y="60" as="sourcePoint"/>
                        <mxPoint x="50" y="60" as="targetPoint"/>
                    </mxGeometry>
                </mxCell>
                <mxCell id="fdX2yPgVDNq5wQi_LwHz-59" value="Q" style="edgeLabel;resizable=0;html=1;align=center;verticalAlign=middle;" parent="fdX2yPgVDNq5wQi_LwHz-58" connectable="0" vertex="1">
                    <mxGeometry relative="1" as="geometry"/>
                </mxCell>
                <mxCell id="fdX2yPgVDNq5wQi_LwHz-60" value="" style="endArrow=classic;html=1;rounded=0;" parent="tn4qRuFnmqHaKZbaOXFV-149" edge="1">
                    <mxGeometry relative="1" as="geometry">
                        <mxPoint y="80" as="sourcePoint"/>
                        <mxPoint x="50" y="80" as="targetPoint"/>
                    </mxGeometry>
                </mxCell>
                <mxCell id="fdX2yPgVDNq5wQi_LwHz-61" value="DATA" style="edgeLabel;resizable=0;html=1;align=center;verticalAlign=middle;" parent="fdX2yPgVDNq5wQi_LwHz-60" connectable="0" vertex="1">
                    <mxGeometry relative="1" as="geometry"/>
                </mxCell>
                <mxCell id="fdX2yPgVDNq5wQi_LwHz-62" value="" style="endArrow=classic;html=1;rounded=0;strokeColor=#0000ff;" parent="tn4qRuFnmqHaKZbaOXFV-149" edge="1">
                    <mxGeometry relative="1" as="geometry">
                        <mxPoint x="150" y="40" as="sourcePoint"/>
                        <mxPoint x="200" y="40" as="targetPoint"/>
                    </mxGeometry>
                </mxCell>
                <mxCell id="fdX2yPgVDNq5wQi_LwHz-63" value="ERR_CNT_0_5" style="edgeLabel;resizable=0;html=1;align=center;verticalAlign=middle;fontSize=5;fontColor=#0000FF;" parent="fdX2yPgVDNq5wQi_LwHz-62" connectable="0" vertex="1">
                    <mxGeometry relative="1" as="geometry">
                        <mxPoint x="-5" as="offset"/>
                    </mxGeometry>
                </mxCell>
                <mxCell id="fdX2yPgVDNq5wQi_LwHz-64" value="" style="endArrow=classic;html=1;rounded=0;strokeColor=#0000ff;" parent="tn4qRuFnmqHaKZbaOXFV-149" edge="1">
                    <mxGeometry relative="1" as="geometry">
                        <mxPoint x="150" y="60" as="sourcePoint"/>
                        <mxPoint x="200" y="60" as="targetPoint"/>
                    </mxGeometry>
                </mxCell>
                <mxCell id="fdX2yPgVDNq5wQi_LwHz-65" value="&lt;font style=&quot;font-size: 5px;&quot;&gt;comp_out_0_5&lt;/font&gt;" style="edgeLabel;resizable=0;html=1;align=center;verticalAlign=middle;fontSize=7;fontColor=#0000FF;" parent="fdX2yPgVDNq5wQi_LwHz-64" connectable="0" vertex="1">
                    <mxGeometry relative="1" as="geometry">
                        <mxPoint x="-5" as="offset"/>
                    </mxGeometry>
                </mxCell>
                <mxCell id="tn4qRuFnmqHaKZbaOXFV-152" value="" style="group" parent="1" vertex="1" connectable="0">
                    <mxGeometry x="1470" y="1130" width="200" height="100" as="geometry"/>
                </mxCell>
                <mxCell id="fdX2yPgVDNq5wQi_LwHz-92" value="LS_CNT_0_8" style="whiteSpace=wrap;html=1;aspect=fixed;noLabel=0;labelPadding=0;" parent="tn4qRuFnmqHaKZbaOXFV-152" vertex="1">
                    <mxGeometry x="50" width="100" height="100" as="geometry"/>
                </mxCell>
                <mxCell id="fdX2yPgVDNq5wQi_LwHz-93" value="" style="endArrow=classic;html=1;rounded=0;" parent="tn4qRuFnmqHaKZbaOXFV-152" edge="1">
                    <mxGeometry relative="1" as="geometry">
                        <mxPoint y="20" as="sourcePoint"/>
                        <mxPoint x="50" y="20" as="targetPoint"/>
                    </mxGeometry>
                </mxCell>
                <mxCell id="fdX2yPgVDNq5wQi_LwHz-94" value="CLK" style="edgeLabel;resizable=0;html=1;align=center;verticalAlign=middle;" parent="fdX2yPgVDNq5wQi_LwHz-93" connectable="0" vertex="1">
                    <mxGeometry relative="1" as="geometry"/>
                </mxCell>
                <mxCell id="fdX2yPgVDNq5wQi_LwHz-95" value="" style="endArrow=classic;html=1;rounded=0;" parent="tn4qRuFnmqHaKZbaOXFV-152" edge="1">
                    <mxGeometry relative="1" as="geometry">
                        <mxPoint y="40" as="sourcePoint"/>
                        <mxPoint x="50" y="40" as="targetPoint"/>
                    </mxGeometry>
                </mxCell>
                <mxCell id="fdX2yPgVDNq5wQi_LwHz-96" value="RST" style="edgeLabel;resizable=0;html=1;align=center;verticalAlign=middle;" parent="fdX2yPgVDNq5wQi_LwHz-95" connectable="0" vertex="1">
                    <mxGeometry relative="1" as="geometry"/>
                </mxCell>
                <mxCell id="fdX2yPgVDNq5wQi_LwHz-97" value="" style="endArrow=classic;html=1;rounded=0;" parent="tn4qRuFnmqHaKZbaOXFV-152" edge="1">
                    <mxGeometry relative="1" as="geometry">
                        <mxPoint y="60" as="sourcePoint"/>
                        <mxPoint x="50" y="60" as="targetPoint"/>
                    </mxGeometry>
                </mxCell>
                <mxCell id="fdX2yPgVDNq5wQi_LwHz-98" value="Q" style="edgeLabel;resizable=0;html=1;align=center;verticalAlign=middle;" parent="fdX2yPgVDNq5wQi_LwHz-97" connectable="0" vertex="1">
                    <mxGeometry relative="1" as="geometry"/>
                </mxCell>
                <mxCell id="fdX2yPgVDNq5wQi_LwHz-99" value="" style="endArrow=classic;html=1;rounded=0;" parent="tn4qRuFnmqHaKZbaOXFV-152" edge="1">
                    <mxGeometry relative="1" as="geometry">
                        <mxPoint y="80" as="sourcePoint"/>
                        <mxPoint x="50" y="80" as="targetPoint"/>
                    </mxGeometry>
                </mxCell>
                <mxCell id="fdX2yPgVDNq5wQi_LwHz-100" value="DATA" style="edgeLabel;resizable=0;html=1;align=center;verticalAlign=middle;" parent="fdX2yPgVDNq5wQi_LwHz-99" connectable="0" vertex="1">
                    <mxGeometry relative="1" as="geometry"/>
                </mxCell>
                <mxCell id="fdX2yPgVDNq5wQi_LwHz-101" value="" style="endArrow=classic;html=1;rounded=0;strokeColor=#0000ff;" parent="tn4qRuFnmqHaKZbaOXFV-152" edge="1">
                    <mxGeometry relative="1" as="geometry">
                        <mxPoint x="150" y="40" as="sourcePoint"/>
                        <mxPoint x="200" y="40" as="targetPoint"/>
                    </mxGeometry>
                </mxCell>
                <mxCell id="fdX2yPgVDNq5wQi_LwHz-102" value="ERR_CNT_0_8" style="edgeLabel;resizable=0;html=1;align=center;verticalAlign=middle;fontSize=5;fontColor=#0000FF;" parent="fdX2yPgVDNq5wQi_LwHz-101" connectable="0" vertex="1">
                    <mxGeometry relative="1" as="geometry">
                        <mxPoint x="-5" as="offset"/>
                    </mxGeometry>
                </mxCell>
                <mxCell id="fdX2yPgVDNq5wQi_LwHz-103" value="" style="endArrow=classic;html=1;rounded=0;strokeColor=#0000ff;" parent="tn4qRuFnmqHaKZbaOXFV-152" edge="1">
                    <mxGeometry relative="1" as="geometry">
                        <mxPoint x="150" y="60" as="sourcePoint"/>
                        <mxPoint x="200" y="60" as="targetPoint"/>
                    </mxGeometry>
                </mxCell>
                <mxCell id="fdX2yPgVDNq5wQi_LwHz-104" value="&lt;font style=&quot;font-size: 5px;&quot;&gt;comp_out_0_8&lt;/font&gt;" style="edgeLabel;resizable=0;html=1;align=center;verticalAlign=middle;fontSize=7;fontColor=#0000FF;" parent="fdX2yPgVDNq5wQi_LwHz-103" connectable="0" vertex="1">
                    <mxGeometry relative="1" as="geometry">
                        <mxPoint x="-5" as="offset"/>
                    </mxGeometry>
                </mxCell>
                <mxCell id="tn4qRuFnmqHaKZbaOXFV-153" value="" style="group" parent="1" vertex="1" connectable="0">
                    <mxGeometry x="1470" y="1250" width="200" height="100" as="geometry"/>
                </mxCell>
                <mxCell id="fdX2yPgVDNq5wQi_LwHz-105" value="LS_CNT_0_9" style="whiteSpace=wrap;html=1;aspect=fixed;noLabel=0;labelPadding=0;" parent="tn4qRuFnmqHaKZbaOXFV-153" vertex="1">
                    <mxGeometry x="50" width="100" height="100" as="geometry"/>
                </mxCell>
                <mxCell id="fdX2yPgVDNq5wQi_LwHz-106" value="" style="endArrow=classic;html=1;rounded=0;" parent="tn4qRuFnmqHaKZbaOXFV-153" edge="1">
                    <mxGeometry relative="1" as="geometry">
                        <mxPoint y="20" as="sourcePoint"/>
                        <mxPoint x="50" y="20" as="targetPoint"/>
                    </mxGeometry>
                </mxCell>
                <mxCell id="fdX2yPgVDNq5wQi_LwHz-107" value="CLK" style="edgeLabel;resizable=0;html=1;align=center;verticalAlign=middle;" parent="fdX2yPgVDNq5wQi_LwHz-106" connectable="0" vertex="1">
                    <mxGeometry relative="1" as="geometry"/>
                </mxCell>
                <mxCell id="fdX2yPgVDNq5wQi_LwHz-108" value="" style="endArrow=classic;html=1;rounded=0;" parent="tn4qRuFnmqHaKZbaOXFV-153" edge="1">
                    <mxGeometry relative="1" as="geometry">
                        <mxPoint y="40" as="sourcePoint"/>
                        <mxPoint x="50" y="40" as="targetPoint"/>
                    </mxGeometry>
                </mxCell>
                <mxCell id="fdX2yPgVDNq5wQi_LwHz-109" value="RST" style="edgeLabel;resizable=0;html=1;align=center;verticalAlign=middle;" parent="fdX2yPgVDNq5wQi_LwHz-108" connectable="0" vertex="1">
                    <mxGeometry relative="1" as="geometry"/>
                </mxCell>
                <mxCell id="fdX2yPgVDNq5wQi_LwHz-110" value="" style="endArrow=classic;html=1;rounded=0;" parent="tn4qRuFnmqHaKZbaOXFV-153" edge="1">
                    <mxGeometry relative="1" as="geometry">
                        <mxPoint y="60" as="sourcePoint"/>
                        <mxPoint x="50" y="60" as="targetPoint"/>
                    </mxGeometry>
                </mxCell>
                <mxCell id="fdX2yPgVDNq5wQi_LwHz-111" value="Q" style="edgeLabel;resizable=0;html=1;align=center;verticalAlign=middle;" parent="fdX2yPgVDNq5wQi_LwHz-110" connectable="0" vertex="1">
                    <mxGeometry relative="1" as="geometry"/>
                </mxCell>
                <mxCell id="fdX2yPgVDNq5wQi_LwHz-112" value="" style="endArrow=classic;html=1;rounded=0;" parent="tn4qRuFnmqHaKZbaOXFV-153" edge="1">
                    <mxGeometry relative="1" as="geometry">
                        <mxPoint y="80" as="sourcePoint"/>
                        <mxPoint x="50" y="80" as="targetPoint"/>
                    </mxGeometry>
                </mxCell>
                <mxCell id="fdX2yPgVDNq5wQi_LwHz-113" value="DATA" style="edgeLabel;resizable=0;html=1;align=center;verticalAlign=middle;" parent="fdX2yPgVDNq5wQi_LwHz-112" connectable="0" vertex="1">
                    <mxGeometry relative="1" as="geometry"/>
                </mxCell>
                <mxCell id="fdX2yPgVDNq5wQi_LwHz-114" value="" style="endArrow=classic;html=1;rounded=0;strokeColor=#0000ff;" parent="tn4qRuFnmqHaKZbaOXFV-153" edge="1">
                    <mxGeometry relative="1" as="geometry">
                        <mxPoint x="150" y="40" as="sourcePoint"/>
                        <mxPoint x="200" y="40" as="targetPoint"/>
                    </mxGeometry>
                </mxCell>
                <mxCell id="fdX2yPgVDNq5wQi_LwHz-115" value="ERR_CNT_0_9" style="edgeLabel;resizable=0;html=1;align=center;verticalAlign=middle;fontSize=5;fontColor=#0000FF;" parent="fdX2yPgVDNq5wQi_LwHz-114" connectable="0" vertex="1">
                    <mxGeometry relative="1" as="geometry">
                        <mxPoint x="-5" as="offset"/>
                    </mxGeometry>
                </mxCell>
                <mxCell id="fdX2yPgVDNq5wQi_LwHz-116" value="" style="endArrow=classic;html=1;rounded=0;strokeColor=#0000ff;" parent="tn4qRuFnmqHaKZbaOXFV-153" edge="1">
                    <mxGeometry relative="1" as="geometry">
                        <mxPoint x="150" y="60" as="sourcePoint"/>
                        <mxPoint x="200" y="60" as="targetPoint"/>
                    </mxGeometry>
                </mxCell>
                <mxCell id="fdX2yPgVDNq5wQi_LwHz-117" value="&lt;font style=&quot;font-size: 5px;&quot;&gt;comp_out_0_9&lt;/font&gt;" style="edgeLabel;resizable=0;html=1;align=center;verticalAlign=middle;fontSize=7;fontColor=#0000FF;" parent="fdX2yPgVDNq5wQi_LwHz-116" connectable="0" vertex="1">
                    <mxGeometry relative="1" as="geometry">
                        <mxPoint x="-5" as="offset"/>
                    </mxGeometry>
                </mxCell>
                <mxCell id="tn4qRuFnmqHaKZbaOXFV-155" value="" style="group" parent="1" vertex="1" connectable="0">
                    <mxGeometry x="1470" y="1370" width="200" height="100" as="geometry"/>
                </mxCell>
                <mxCell id="fdX2yPgVDNq5wQi_LwHz-118" value="LS_CNT_1_0" style="whiteSpace=wrap;html=1;aspect=fixed;noLabel=0;labelPadding=0;" parent="tn4qRuFnmqHaKZbaOXFV-155" vertex="1">
                    <mxGeometry x="50" width="100" height="100" as="geometry"/>
                </mxCell>
                <mxCell id="tn4qRuFnmqHaKZbaOXFV-154" value="" style="group" parent="tn4qRuFnmqHaKZbaOXFV-155" vertex="1" connectable="0">
                    <mxGeometry y="20" width="200" height="60" as="geometry"/>
                </mxCell>
                <mxCell id="fdX2yPgVDNq5wQi_LwHz-119" value="" style="endArrow=classic;html=1;rounded=0;" parent="tn4qRuFnmqHaKZbaOXFV-154" edge="1">
                    <mxGeometry relative="1" as="geometry">
                        <mxPoint as="sourcePoint"/>
                        <mxPoint x="50" as="targetPoint"/>
                    </mxGeometry>
                </mxCell>
                <mxCell id="fdX2yPgVDNq5wQi_LwHz-120" value="CLK" style="edgeLabel;resizable=0;html=1;align=center;verticalAlign=middle;" parent="fdX2yPgVDNq5wQi_LwHz-119" connectable="0" vertex="1">
                    <mxGeometry relative="1" as="geometry"/>
                </mxCell>
                <mxCell id="fdX2yPgVDNq5wQi_LwHz-121" value="" style="endArrow=classic;html=1;rounded=0;" parent="tn4qRuFnmqHaKZbaOXFV-154" edge="1">
                    <mxGeometry relative="1" as="geometry">
                        <mxPoint y="20" as="sourcePoint"/>
                        <mxPoint x="50" y="20" as="targetPoint"/>
                    </mxGeometry>
                </mxCell>
                <mxCell id="fdX2yPgVDNq5wQi_LwHz-122" value="RST" style="edgeLabel;resizable=0;html=1;align=center;verticalAlign=middle;" parent="fdX2yPgVDNq5wQi_LwHz-121" connectable="0" vertex="1">
                    <mxGeometry relative="1" as="geometry"/>
                </mxCell>
                <mxCell id="fdX2yPgVDNq5wQi_LwHz-123" value="" style="endArrow=classic;html=1;rounded=0;" parent="tn4qRuFnmqHaKZbaOXFV-154" edge="1">
                    <mxGeometry relative="1" as="geometry">
                        <mxPoint y="40" as="sourcePoint"/>
                        <mxPoint x="50" y="40" as="targetPoint"/>
                    </mxGeometry>
                </mxCell>
                <mxCell id="fdX2yPgVDNq5wQi_LwHz-124" value="Q" style="edgeLabel;resizable=0;html=1;align=center;verticalAlign=middle;" parent="fdX2yPgVDNq5wQi_LwHz-123" connectable="0" vertex="1">
                    <mxGeometry relative="1" as="geometry"/>
                </mxCell>
                <mxCell id="fdX2yPgVDNq5wQi_LwHz-125" value="" style="endArrow=classic;html=1;rounded=0;" parent="tn4qRuFnmqHaKZbaOXFV-154" edge="1">
                    <mxGeometry relative="1" as="geometry">
                        <mxPoint y="60" as="sourcePoint"/>
                        <mxPoint x="50" y="60" as="targetPoint"/>
                    </mxGeometry>
                </mxCell>
                <mxCell id="fdX2yPgVDNq5wQi_LwHz-126" value="DATA" style="edgeLabel;resizable=0;html=1;align=center;verticalAlign=middle;" parent="fdX2yPgVDNq5wQi_LwHz-125" connectable="0" vertex="1">
                    <mxGeometry relative="1" as="geometry"/>
                </mxCell>
                <mxCell id="fdX2yPgVDNq5wQi_LwHz-127" value="" style="endArrow=classic;html=1;rounded=0;strokeColor=#0000ff;" parent="tn4qRuFnmqHaKZbaOXFV-154" edge="1">
                    <mxGeometry relative="1" as="geometry">
                        <mxPoint x="150" y="20" as="sourcePoint"/>
                        <mxPoint x="200" y="20" as="targetPoint"/>
                    </mxGeometry>
                </mxCell>
                <mxCell id="fdX2yPgVDNq5wQi_LwHz-128" value="ERR_CNT_1_0" style="edgeLabel;resizable=0;html=1;align=center;verticalAlign=middle;fontSize=5;fontColor=#0000FF;" parent="fdX2yPgVDNq5wQi_LwHz-127" connectable="0" vertex="1">
                    <mxGeometry relative="1" as="geometry">
                        <mxPoint x="-5" as="offset"/>
                    </mxGeometry>
                </mxCell>
                <mxCell id="fdX2yPgVDNq5wQi_LwHz-129" value="" style="endArrow=classic;html=1;rounded=0;strokeColor=#0000ff;" parent="tn4qRuFnmqHaKZbaOXFV-154" edge="1">
                    <mxGeometry relative="1" as="geometry">
                        <mxPoint x="150" y="40" as="sourcePoint"/>
                        <mxPoint x="200" y="40" as="targetPoint"/>
                    </mxGeometry>
                </mxCell>
                <mxCell id="fdX2yPgVDNq5wQi_LwHz-130" value="&lt;font style=&quot;font-size: 5px;&quot;&gt;comp_out_1_0&lt;/font&gt;" style="edgeLabel;resizable=0;html=1;align=center;verticalAlign=middle;fontSize=7;fontColor=#0000FF;" parent="fdX2yPgVDNq5wQi_LwHz-129" connectable="0" vertex="1">
                    <mxGeometry relative="1" as="geometry">
                        <mxPoint x="-5" as="offset"/>
                    </mxGeometry>
                </mxCell>
                <mxCell id="tn4qRuFnmqHaKZbaOXFV-156" value="" style="group" parent="1" vertex="1" connectable="0">
                    <mxGeometry x="1470" y="1490" width="200" height="100" as="geometry"/>
                </mxCell>
                <mxCell id="fdX2yPgVDNq5wQi_LwHz-131" value="LS_CNT_1_1" style="whiteSpace=wrap;html=1;aspect=fixed;noLabel=0;labelPadding=0;" parent="tn4qRuFnmqHaKZbaOXFV-156" vertex="1">
                    <mxGeometry x="50" width="100" height="100" as="geometry"/>
                </mxCell>
                <mxCell id="fdX2yPgVDNq5wQi_LwHz-132" value="" style="endArrow=classic;html=1;rounded=0;" parent="tn4qRuFnmqHaKZbaOXFV-156" edge="1">
                    <mxGeometry relative="1" as="geometry">
                        <mxPoint y="20" as="sourcePoint"/>
                        <mxPoint x="50" y="20" as="targetPoint"/>
                    </mxGeometry>
                </mxCell>
                <mxCell id="fdX2yPgVDNq5wQi_LwHz-133" value="CLK" style="edgeLabel;resizable=0;html=1;align=center;verticalAlign=middle;" parent="fdX2yPgVDNq5wQi_LwHz-132" connectable="0" vertex="1">
                    <mxGeometry relative="1" as="geometry"/>
                </mxCell>
                <mxCell id="fdX2yPgVDNq5wQi_LwHz-134" value="" style="endArrow=classic;html=1;rounded=0;" parent="tn4qRuFnmqHaKZbaOXFV-156" edge="1">
                    <mxGeometry relative="1" as="geometry">
                        <mxPoint y="40" as="sourcePoint"/>
                        <mxPoint x="50" y="40" as="targetPoint"/>
                    </mxGeometry>
                </mxCell>
                <mxCell id="fdX2yPgVDNq5wQi_LwHz-135" value="RST" style="edgeLabel;resizable=0;html=1;align=center;verticalAlign=middle;" parent="fdX2yPgVDNq5wQi_LwHz-134" connectable="0" vertex="1">
                    <mxGeometry relative="1" as="geometry"/>
                </mxCell>
                <mxCell id="fdX2yPgVDNq5wQi_LwHz-136" value="" style="endArrow=classic;html=1;rounded=0;" parent="tn4qRuFnmqHaKZbaOXFV-156" edge="1">
                    <mxGeometry relative="1" as="geometry">
                        <mxPoint y="60" as="sourcePoint"/>
                        <mxPoint x="50" y="60" as="targetPoint"/>
                    </mxGeometry>
                </mxCell>
                <mxCell id="fdX2yPgVDNq5wQi_LwHz-137" value="Q" style="edgeLabel;resizable=0;html=1;align=center;verticalAlign=middle;" parent="fdX2yPgVDNq5wQi_LwHz-136" connectable="0" vertex="1">
                    <mxGeometry relative="1" as="geometry"/>
                </mxCell>
                <mxCell id="fdX2yPgVDNq5wQi_LwHz-138" value="" style="endArrow=classic;html=1;rounded=0;" parent="tn4qRuFnmqHaKZbaOXFV-156" edge="1">
                    <mxGeometry relative="1" as="geometry">
                        <mxPoint y="80" as="sourcePoint"/>
                        <mxPoint x="50" y="80" as="targetPoint"/>
                    </mxGeometry>
                </mxCell>
                <mxCell id="fdX2yPgVDNq5wQi_LwHz-139" value="DATA" style="edgeLabel;resizable=0;html=1;align=center;verticalAlign=middle;" parent="fdX2yPgVDNq5wQi_LwHz-138" connectable="0" vertex="1">
                    <mxGeometry relative="1" as="geometry"/>
                </mxCell>
                <mxCell id="fdX2yPgVDNq5wQi_LwHz-140" value="" style="endArrow=classic;html=1;rounded=0;strokeColor=#0000ff;" parent="tn4qRuFnmqHaKZbaOXFV-156" edge="1">
                    <mxGeometry relative="1" as="geometry">
                        <mxPoint x="150" y="40" as="sourcePoint"/>
                        <mxPoint x="200" y="40" as="targetPoint"/>
                    </mxGeometry>
                </mxCell>
                <mxCell id="fdX2yPgVDNq5wQi_LwHz-141" value="ERR_CNT_1_1" style="edgeLabel;resizable=0;html=1;align=center;verticalAlign=middle;fontSize=5;fontColor=#0000FF;" parent="fdX2yPgVDNq5wQi_LwHz-140" connectable="0" vertex="1">
                    <mxGeometry relative="1" as="geometry">
                        <mxPoint x="-5" as="offset"/>
                    </mxGeometry>
                </mxCell>
                <mxCell id="fdX2yPgVDNq5wQi_LwHz-142" value="" style="endArrow=classic;html=1;rounded=0;strokeColor=#0000ff;" parent="tn4qRuFnmqHaKZbaOXFV-156" edge="1">
                    <mxGeometry relative="1" as="geometry">
                        <mxPoint x="150" y="60" as="sourcePoint"/>
                        <mxPoint x="200" y="60" as="targetPoint"/>
                    </mxGeometry>
                </mxCell>
                <mxCell id="fdX2yPgVDNq5wQi_LwHz-143" value="&lt;font style=&quot;font-size: 5px;&quot;&gt;comp_out_1_1&lt;/font&gt;" style="edgeLabel;resizable=0;html=1;align=center;verticalAlign=middle;fontSize=7;fontColor=#0000FF;" parent="fdX2yPgVDNq5wQi_LwHz-142" connectable="0" vertex="1">
                    <mxGeometry relative="1" as="geometry">
                        <mxPoint x="-5" as="offset"/>
                    </mxGeometry>
                </mxCell>
                <mxCell id="tn4qRuFnmqHaKZbaOXFV-157" value="" style="group" parent="1" vertex="1" connectable="0">
                    <mxGeometry x="1470" y="1610" width="200" height="100" as="geometry"/>
                </mxCell>
                <mxCell id="fdX2yPgVDNq5wQi_LwHz-144" value="LS_CNT_1_2" style="whiteSpace=wrap;html=1;aspect=fixed;noLabel=0;labelPadding=0;" parent="tn4qRuFnmqHaKZbaOXFV-157" vertex="1">
                    <mxGeometry x="50" width="100" height="100" as="geometry"/>
                </mxCell>
                <mxCell id="fdX2yPgVDNq5wQi_LwHz-145" value="" style="endArrow=classic;html=1;rounded=0;" parent="tn4qRuFnmqHaKZbaOXFV-157" edge="1">
                    <mxGeometry relative="1" as="geometry">
                        <mxPoint y="20" as="sourcePoint"/>
                        <mxPoint x="50" y="20" as="targetPoint"/>
                    </mxGeometry>
                </mxCell>
                <mxCell id="fdX2yPgVDNq5wQi_LwHz-146" value="CLK" style="edgeLabel;resizable=0;html=1;align=center;verticalAlign=middle;" parent="fdX2yPgVDNq5wQi_LwHz-145" connectable="0" vertex="1">
                    <mxGeometry relative="1" as="geometry"/>
                </mxCell>
                <mxCell id="fdX2yPgVDNq5wQi_LwHz-147" value="" style="endArrow=classic;html=1;rounded=0;" parent="tn4qRuFnmqHaKZbaOXFV-157" edge="1">
                    <mxGeometry relative="1" as="geometry">
                        <mxPoint y="40" as="sourcePoint"/>
                        <mxPoint x="50" y="40" as="targetPoint"/>
                    </mxGeometry>
                </mxCell>
                <mxCell id="fdX2yPgVDNq5wQi_LwHz-148" value="RST" style="edgeLabel;resizable=0;html=1;align=center;verticalAlign=middle;" parent="fdX2yPgVDNq5wQi_LwHz-147" connectable="0" vertex="1">
                    <mxGeometry relative="1" as="geometry"/>
                </mxCell>
                <mxCell id="fdX2yPgVDNq5wQi_LwHz-149" value="" style="endArrow=classic;html=1;rounded=0;" parent="tn4qRuFnmqHaKZbaOXFV-157" edge="1">
                    <mxGeometry relative="1" as="geometry">
                        <mxPoint y="60" as="sourcePoint"/>
                        <mxPoint x="50" y="60" as="targetPoint"/>
                    </mxGeometry>
                </mxCell>
                <mxCell id="fdX2yPgVDNq5wQi_LwHz-150" value="Q" style="edgeLabel;resizable=0;html=1;align=center;verticalAlign=middle;" parent="fdX2yPgVDNq5wQi_LwHz-149" connectable="0" vertex="1">
                    <mxGeometry relative="1" as="geometry"/>
                </mxCell>
                <mxCell id="fdX2yPgVDNq5wQi_LwHz-151" value="" style="endArrow=classic;html=1;rounded=0;" parent="tn4qRuFnmqHaKZbaOXFV-157" edge="1">
                    <mxGeometry relative="1" as="geometry">
                        <mxPoint y="80" as="sourcePoint"/>
                        <mxPoint x="50" y="80" as="targetPoint"/>
                    </mxGeometry>
                </mxCell>
                <mxCell id="fdX2yPgVDNq5wQi_LwHz-152" value="DATA" style="edgeLabel;resizable=0;html=1;align=center;verticalAlign=middle;" parent="fdX2yPgVDNq5wQi_LwHz-151" connectable="0" vertex="1">
                    <mxGeometry relative="1" as="geometry"/>
                </mxCell>
                <mxCell id="fdX2yPgVDNq5wQi_LwHz-153" value="" style="endArrow=classic;html=1;rounded=0;strokeColor=#0000FF;" parent="tn4qRuFnmqHaKZbaOXFV-157" edge="1">
                    <mxGeometry relative="1" as="geometry">
                        <mxPoint x="150" y="40" as="sourcePoint"/>
                        <mxPoint x="200" y="40" as="targetPoint"/>
                    </mxGeometry>
                </mxCell>
                <mxCell id="fdX2yPgVDNq5wQi_LwHz-154" value="ERR_CNT_1_2" style="edgeLabel;resizable=0;html=1;align=center;verticalAlign=middle;fontSize=5;fontColor=#0000FF;" parent="fdX2yPgVDNq5wQi_LwHz-153" connectable="0" vertex="1">
                    <mxGeometry relative="1" as="geometry">
                        <mxPoint x="-5" as="offset"/>
                    </mxGeometry>
                </mxCell>
                <mxCell id="fdX2yPgVDNq5wQi_LwHz-155" value="" style="endArrow=classic;html=1;rounded=0;strokeColor=#0000ff;" parent="tn4qRuFnmqHaKZbaOXFV-157" edge="1">
                    <mxGeometry relative="1" as="geometry">
                        <mxPoint x="150" y="60" as="sourcePoint"/>
                        <mxPoint x="200" y="60" as="targetPoint"/>
                    </mxGeometry>
                </mxCell>
                <mxCell id="fdX2yPgVDNq5wQi_LwHz-156" value="&lt;font style=&quot;font-size: 5px;&quot;&gt;comp_out_1_2&lt;/font&gt;" style="edgeLabel;resizable=0;html=1;align=center;verticalAlign=middle;fontSize=7;fontColor=#0000FF;" parent="fdX2yPgVDNq5wQi_LwHz-155" connectable="0" vertex="1">
                    <mxGeometry relative="1" as="geometry">
                        <mxPoint x="-5" as="offset"/>
                    </mxGeometry>
                </mxCell>
                <mxCell id="tn4qRuFnmqHaKZbaOXFV-158" value="" style="group" parent="1" vertex="1" connectable="0">
                    <mxGeometry x="1470" y="1730" width="200" height="100" as="geometry"/>
                </mxCell>
                <mxCell id="fdX2yPgVDNq5wQi_LwHz-157" value="LS_CNT_1_3" style="whiteSpace=wrap;html=1;aspect=fixed;noLabel=0;labelPadding=0;" parent="tn4qRuFnmqHaKZbaOXFV-158" vertex="1">
                    <mxGeometry x="50" width="100" height="100" as="geometry"/>
                </mxCell>
                <mxCell id="fdX2yPgVDNq5wQi_LwHz-158" value="" style="endArrow=classic;html=1;rounded=0;" parent="tn4qRuFnmqHaKZbaOXFV-158" edge="1">
                    <mxGeometry relative="1" as="geometry">
                        <mxPoint y="20" as="sourcePoint"/>
                        <mxPoint x="50" y="20" as="targetPoint"/>
                    </mxGeometry>
                </mxCell>
                <mxCell id="fdX2yPgVDNq5wQi_LwHz-159" value="CLK" style="edgeLabel;resizable=0;html=1;align=center;verticalAlign=middle;" parent="fdX2yPgVDNq5wQi_LwHz-158" connectable="0" vertex="1">
                    <mxGeometry relative="1" as="geometry"/>
                </mxCell>
                <mxCell id="fdX2yPgVDNq5wQi_LwHz-160" value="" style="endArrow=classic;html=1;rounded=0;" parent="tn4qRuFnmqHaKZbaOXFV-158" edge="1">
                    <mxGeometry relative="1" as="geometry">
                        <mxPoint y="40" as="sourcePoint"/>
                        <mxPoint x="50" y="40" as="targetPoint"/>
                    </mxGeometry>
                </mxCell>
                <mxCell id="fdX2yPgVDNq5wQi_LwHz-161" value="RST" style="edgeLabel;resizable=0;html=1;align=center;verticalAlign=middle;" parent="fdX2yPgVDNq5wQi_LwHz-160" connectable="0" vertex="1">
                    <mxGeometry relative="1" as="geometry"/>
                </mxCell>
                <mxCell id="fdX2yPgVDNq5wQi_LwHz-162" value="" style="endArrow=classic;html=1;rounded=0;" parent="tn4qRuFnmqHaKZbaOXFV-158" edge="1">
                    <mxGeometry relative="1" as="geometry">
                        <mxPoint y="60" as="sourcePoint"/>
                        <mxPoint x="50" y="60" as="targetPoint"/>
                    </mxGeometry>
                </mxCell>
                <mxCell id="fdX2yPgVDNq5wQi_LwHz-163" value="Q" style="edgeLabel;resizable=0;html=1;align=center;verticalAlign=middle;" parent="fdX2yPgVDNq5wQi_LwHz-162" connectable="0" vertex="1">
                    <mxGeometry relative="1" as="geometry"/>
                </mxCell>
                <mxCell id="fdX2yPgVDNq5wQi_LwHz-164" value="" style="endArrow=classic;html=1;rounded=0;" parent="tn4qRuFnmqHaKZbaOXFV-158" edge="1">
                    <mxGeometry relative="1" as="geometry">
                        <mxPoint y="80" as="sourcePoint"/>
                        <mxPoint x="50" y="80" as="targetPoint"/>
                    </mxGeometry>
                </mxCell>
                <mxCell id="fdX2yPgVDNq5wQi_LwHz-165" value="DATA" style="edgeLabel;resizable=0;html=1;align=center;verticalAlign=middle;" parent="fdX2yPgVDNq5wQi_LwHz-164" connectable="0" vertex="1">
                    <mxGeometry relative="1" as="geometry"/>
                </mxCell>
                <mxCell id="fdX2yPgVDNq5wQi_LwHz-166" value="" style="endArrow=classic;html=1;rounded=0;strokeColor=#0000FF;" parent="tn4qRuFnmqHaKZbaOXFV-158" edge="1">
                    <mxGeometry relative="1" as="geometry">
                        <mxPoint x="150" y="40" as="sourcePoint"/>
                        <mxPoint x="200" y="40" as="targetPoint"/>
                    </mxGeometry>
                </mxCell>
                <mxCell id="fdX2yPgVDNq5wQi_LwHz-167" value="ERR_CNT_1_3" style="edgeLabel;resizable=0;html=1;align=center;verticalAlign=middle;fontSize=5;fontColor=#0000FF;" parent="fdX2yPgVDNq5wQi_LwHz-166" connectable="0" vertex="1">
                    <mxGeometry relative="1" as="geometry">
                        <mxPoint x="-5" as="offset"/>
                    </mxGeometry>
                </mxCell>
                <mxCell id="fdX2yPgVDNq5wQi_LwHz-168" value="" style="endArrow=classic;html=1;rounded=0;strokeColor=#0000ff;" parent="tn4qRuFnmqHaKZbaOXFV-158" edge="1">
                    <mxGeometry relative="1" as="geometry">
                        <mxPoint x="150" y="60" as="sourcePoint"/>
                        <mxPoint x="200" y="60" as="targetPoint"/>
                    </mxGeometry>
                </mxCell>
                <mxCell id="fdX2yPgVDNq5wQi_LwHz-169" value="comp_out" style="edgeLabel;resizable=0;html=1;align=center;verticalAlign=middle;fontSize=7;fontColor=#0000FF;" parent="fdX2yPgVDNq5wQi_LwHz-168" connectable="0" vertex="1">
                    <mxGeometry relative="1" as="geometry">
                        <mxPoint x="-5" as="offset"/>
                    </mxGeometry>
                </mxCell>
                <mxCell id="tn4qRuFnmqHaKZbaOXFV-159" value="" style="group" parent="1" vertex="1" connectable="0">
                    <mxGeometry x="1470" y="1008" width="200" height="100" as="geometry"/>
                </mxCell>
                <mxCell id="fdX2yPgVDNq5wQi_LwHz-79" value="LS_CNT_0_7" style="whiteSpace=wrap;html=1;aspect=fixed;noLabel=0;labelPadding=0;" parent="tn4qRuFnmqHaKZbaOXFV-159" vertex="1">
                    <mxGeometry x="50" width="100" height="100" as="geometry"/>
                </mxCell>
                <mxCell id="tn4qRuFnmqHaKZbaOXFV-151" value="" style="group" parent="tn4qRuFnmqHaKZbaOXFV-159" vertex="1" connectable="0">
                    <mxGeometry y="20" width="200" height="60" as="geometry"/>
                </mxCell>
                <mxCell id="fdX2yPgVDNq5wQi_LwHz-80" value="" style="endArrow=classic;html=1;rounded=0;" parent="tn4qRuFnmqHaKZbaOXFV-151" edge="1">
                    <mxGeometry relative="1" as="geometry">
                        <mxPoint as="sourcePoint"/>
                        <mxPoint x="50" as="targetPoint"/>
                    </mxGeometry>
                </mxCell>
                <mxCell id="fdX2yPgVDNq5wQi_LwHz-81" value="CLK" style="edgeLabel;resizable=0;html=1;align=center;verticalAlign=middle;" parent="fdX2yPgVDNq5wQi_LwHz-80" connectable="0" vertex="1">
                    <mxGeometry relative="1" as="geometry"/>
                </mxCell>
                <mxCell id="fdX2yPgVDNq5wQi_LwHz-82" value="" style="endArrow=classic;html=1;rounded=0;" parent="tn4qRuFnmqHaKZbaOXFV-151" edge="1">
                    <mxGeometry relative="1" as="geometry">
                        <mxPoint y="20" as="sourcePoint"/>
                        <mxPoint x="50" y="20" as="targetPoint"/>
                    </mxGeometry>
                </mxCell>
                <mxCell id="fdX2yPgVDNq5wQi_LwHz-83" value="RST" style="edgeLabel;resizable=0;html=1;align=center;verticalAlign=middle;" parent="fdX2yPgVDNq5wQi_LwHz-82" connectable="0" vertex="1">
                    <mxGeometry relative="1" as="geometry"/>
                </mxCell>
                <mxCell id="fdX2yPgVDNq5wQi_LwHz-84" value="" style="endArrow=classic;html=1;rounded=0;" parent="tn4qRuFnmqHaKZbaOXFV-151" edge="1">
                    <mxGeometry relative="1" as="geometry">
                        <mxPoint y="40" as="sourcePoint"/>
                        <mxPoint x="50" y="40" as="targetPoint"/>
                    </mxGeometry>
                </mxCell>
                <mxCell id="fdX2yPgVDNq5wQi_LwHz-85" value="Q" style="edgeLabel;resizable=0;html=1;align=center;verticalAlign=middle;" parent="fdX2yPgVDNq5wQi_LwHz-84" connectable="0" vertex="1">
                    <mxGeometry relative="1" as="geometry"/>
                </mxCell>
                <mxCell id="fdX2yPgVDNq5wQi_LwHz-86" value="" style="endArrow=classic;html=1;rounded=0;" parent="tn4qRuFnmqHaKZbaOXFV-151" edge="1">
                    <mxGeometry relative="1" as="geometry">
                        <mxPoint y="60" as="sourcePoint"/>
                        <mxPoint x="50" y="60" as="targetPoint"/>
                    </mxGeometry>
                </mxCell>
                <mxCell id="fdX2yPgVDNq5wQi_LwHz-87" value="DATA" style="edgeLabel;resizable=0;html=1;align=center;verticalAlign=middle;" parent="fdX2yPgVDNq5wQi_LwHz-86" connectable="0" vertex="1">
                    <mxGeometry relative="1" as="geometry"/>
                </mxCell>
                <mxCell id="fdX2yPgVDNq5wQi_LwHz-88" value="" style="endArrow=classic;html=1;rounded=0;strokeColor=#0000ff;" parent="tn4qRuFnmqHaKZbaOXFV-151" edge="1">
                    <mxGeometry relative="1" as="geometry">
                        <mxPoint x="150" y="20" as="sourcePoint"/>
                        <mxPoint x="200" y="20" as="targetPoint"/>
                    </mxGeometry>
                </mxCell>
                <mxCell id="fdX2yPgVDNq5wQi_LwHz-89" value="ERR_CNT_0_7" style="edgeLabel;resizable=0;html=1;align=center;verticalAlign=middle;fontSize=5;fontColor=#0000FF;" parent="fdX2yPgVDNq5wQi_LwHz-88" connectable="0" vertex="1">
                    <mxGeometry relative="1" as="geometry">
                        <mxPoint x="-5" as="offset"/>
                    </mxGeometry>
                </mxCell>
                <mxCell id="fdX2yPgVDNq5wQi_LwHz-90" value="" style="endArrow=classic;html=1;rounded=0;strokeColor=#0000ff;" parent="tn4qRuFnmqHaKZbaOXFV-151" edge="1">
                    <mxGeometry relative="1" as="geometry">
                        <mxPoint x="150" y="40" as="sourcePoint"/>
                        <mxPoint x="200" y="40" as="targetPoint"/>
                    </mxGeometry>
                </mxCell>
                <mxCell id="fdX2yPgVDNq5wQi_LwHz-91" value="&lt;font style=&quot;font-size: 5px;&quot;&gt;comp_out_0_7&lt;/font&gt;" style="edgeLabel;resizable=0;html=1;align=center;verticalAlign=middle;fontSize=7;fontColor=#0000FF;" parent="fdX2yPgVDNq5wQi_LwHz-90" connectable="0" vertex="1">
                    <mxGeometry relative="1" as="geometry">
                        <mxPoint x="-5" as="offset"/>
                    </mxGeometry>
                </mxCell>
                <mxCell id="tn4qRuFnmqHaKZbaOXFV-160" value="" style="group" parent="1" vertex="1" connectable="0">
                    <mxGeometry x="1470" y="888" width="200" height="100" as="geometry"/>
                </mxCell>
                <mxCell id="fdX2yPgVDNq5wQi_LwHz-66" value="LS_CNT_0_6" style="whiteSpace=wrap;html=1;aspect=fixed;noLabel=0;labelPadding=0;" parent="tn4qRuFnmqHaKZbaOXFV-160" vertex="1">
                    <mxGeometry x="50" width="100" height="100" as="geometry"/>
                </mxCell>
                <mxCell id="tn4qRuFnmqHaKZbaOXFV-150" value="" style="group" parent="tn4qRuFnmqHaKZbaOXFV-160" vertex="1" connectable="0">
                    <mxGeometry y="20" width="200" height="60" as="geometry"/>
                </mxCell>
                <mxCell id="fdX2yPgVDNq5wQi_LwHz-67" value="" style="endArrow=classic;html=1;rounded=0;" parent="tn4qRuFnmqHaKZbaOXFV-150" edge="1">
                    <mxGeometry relative="1" as="geometry">
                        <mxPoint as="sourcePoint"/>
                        <mxPoint x="50" as="targetPoint"/>
                    </mxGeometry>
                </mxCell>
                <mxCell id="fdX2yPgVDNq5wQi_LwHz-68" value="CLK" style="edgeLabel;resizable=0;html=1;align=center;verticalAlign=middle;" parent="fdX2yPgVDNq5wQi_LwHz-67" connectable="0" vertex="1">
                    <mxGeometry relative="1" as="geometry"/>
                </mxCell>
                <mxCell id="fdX2yPgVDNq5wQi_LwHz-69" value="" style="endArrow=classic;html=1;rounded=0;" parent="tn4qRuFnmqHaKZbaOXFV-150" edge="1">
                    <mxGeometry relative="1" as="geometry">
                        <mxPoint y="20" as="sourcePoint"/>
                        <mxPoint x="50" y="20" as="targetPoint"/>
                    </mxGeometry>
                </mxCell>
                <mxCell id="fdX2yPgVDNq5wQi_LwHz-70" value="RST" style="edgeLabel;resizable=0;html=1;align=center;verticalAlign=middle;" parent="fdX2yPgVDNq5wQi_LwHz-69" connectable="0" vertex="1">
                    <mxGeometry relative="1" as="geometry"/>
                </mxCell>
                <mxCell id="fdX2yPgVDNq5wQi_LwHz-71" value="" style="endArrow=classic;html=1;rounded=0;" parent="tn4qRuFnmqHaKZbaOXFV-150" edge="1">
                    <mxGeometry relative="1" as="geometry">
                        <mxPoint y="40" as="sourcePoint"/>
                        <mxPoint x="50" y="40" as="targetPoint"/>
                    </mxGeometry>
                </mxCell>
                <mxCell id="fdX2yPgVDNq5wQi_LwHz-72" value="Q" style="edgeLabel;resizable=0;html=1;align=center;verticalAlign=middle;" parent="fdX2yPgVDNq5wQi_LwHz-71" connectable="0" vertex="1">
                    <mxGeometry relative="1" as="geometry"/>
                </mxCell>
                <mxCell id="fdX2yPgVDNq5wQi_LwHz-73" value="" style="endArrow=classic;html=1;rounded=0;" parent="tn4qRuFnmqHaKZbaOXFV-150" edge="1">
                    <mxGeometry relative="1" as="geometry">
                        <mxPoint y="60" as="sourcePoint"/>
                        <mxPoint x="50" y="60" as="targetPoint"/>
                    </mxGeometry>
                </mxCell>
                <mxCell id="fdX2yPgVDNq5wQi_LwHz-74" value="DATA" style="edgeLabel;resizable=0;html=1;align=center;verticalAlign=middle;" parent="fdX2yPgVDNq5wQi_LwHz-73" connectable="0" vertex="1">
                    <mxGeometry relative="1" as="geometry"/>
                </mxCell>
                <mxCell id="fdX2yPgVDNq5wQi_LwHz-75" value="" style="endArrow=classic;html=1;rounded=0;strokeColor=#0000ff;" parent="tn4qRuFnmqHaKZbaOXFV-150" edge="1">
                    <mxGeometry relative="1" as="geometry">
                        <mxPoint x="150" y="20" as="sourcePoint"/>
                        <mxPoint x="200" y="20" as="targetPoint"/>
                    </mxGeometry>
                </mxCell>
                <mxCell id="fdX2yPgVDNq5wQi_LwHz-76" value="ERR_CNT_0_6" style="edgeLabel;resizable=0;html=1;align=center;verticalAlign=middle;fontSize=5;fontColor=#0000FF;" parent="fdX2yPgVDNq5wQi_LwHz-75" connectable="0" vertex="1">
                    <mxGeometry relative="1" as="geometry">
                        <mxPoint x="-5" as="offset"/>
                    </mxGeometry>
                </mxCell>
                <mxCell id="fdX2yPgVDNq5wQi_LwHz-77" value="" style="endArrow=classic;html=1;rounded=0;strokeColor=#0000ff;" parent="tn4qRuFnmqHaKZbaOXFV-150" edge="1">
                    <mxGeometry relative="1" as="geometry">
                        <mxPoint x="150" y="40" as="sourcePoint"/>
                        <mxPoint x="200" y="40" as="targetPoint"/>
                    </mxGeometry>
                </mxCell>
                <mxCell id="fdX2yPgVDNq5wQi_LwHz-78" value="&lt;font style=&quot;font-size: 5px;&quot;&gt;comp_out_0_6&lt;br&gt;&lt;/font&gt;" style="edgeLabel;resizable=0;html=1;align=center;verticalAlign=middle;fontSize=7;fontColor=#0000FF;" parent="fdX2yPgVDNq5wQi_LwHz-77" connectable="0" vertex="1">
                    <mxGeometry relative="1" as="geometry">
                        <mxPoint x="-5" as="offset"/>
                    </mxGeometry>
                </mxCell>
                <mxCell id="tn4qRuFnmqHaKZbaOXFV-161" value="" style="group" parent="1" vertex="1" connectable="0">
                    <mxGeometry x="1690" y="168" width="200" height="100" as="geometry"/>
                </mxCell>
                <mxCell id="fdX2yPgVDNq5wQi_LwHz-170" value="LS_CNT_1_4" style="whiteSpace=wrap;html=1;aspect=fixed;noLabel=0;labelPadding=0;" parent="tn4qRuFnmqHaKZbaOXFV-161" vertex="1">
                    <mxGeometry x="50" width="100" height="100" as="geometry"/>
                </mxCell>
                <mxCell id="fdX2yPgVDNq5wQi_LwHz-171" value="" style="endArrow=classic;html=1;rounded=0;" parent="tn4qRuFnmqHaKZbaOXFV-161" edge="1">
                    <mxGeometry relative="1" as="geometry">
                        <mxPoint y="20" as="sourcePoint"/>
                        <mxPoint x="50" y="20" as="targetPoint"/>
                    </mxGeometry>
                </mxCell>
                <mxCell id="fdX2yPgVDNq5wQi_LwHz-172" value="CLK" style="edgeLabel;resizable=0;html=1;align=center;verticalAlign=middle;" parent="fdX2yPgVDNq5wQi_LwHz-171" connectable="0" vertex="1">
                    <mxGeometry relative="1" as="geometry"/>
                </mxCell>
                <mxCell id="fdX2yPgVDNq5wQi_LwHz-173" value="" style="endArrow=classic;html=1;rounded=0;" parent="tn4qRuFnmqHaKZbaOXFV-161" edge="1">
                    <mxGeometry relative="1" as="geometry">
                        <mxPoint y="40" as="sourcePoint"/>
                        <mxPoint x="50" y="40" as="targetPoint"/>
                    </mxGeometry>
                </mxCell>
                <mxCell id="fdX2yPgVDNq5wQi_LwHz-174" value="RST" style="edgeLabel;resizable=0;html=1;align=center;verticalAlign=middle;" parent="fdX2yPgVDNq5wQi_LwHz-173" connectable="0" vertex="1">
                    <mxGeometry relative="1" as="geometry"/>
                </mxCell>
                <mxCell id="fdX2yPgVDNq5wQi_LwHz-175" value="" style="endArrow=classic;html=1;rounded=0;" parent="tn4qRuFnmqHaKZbaOXFV-161" edge="1">
                    <mxGeometry relative="1" as="geometry">
                        <mxPoint y="60" as="sourcePoint"/>
                        <mxPoint x="50" y="60" as="targetPoint"/>
                    </mxGeometry>
                </mxCell>
                <mxCell id="fdX2yPgVDNq5wQi_LwHz-176" value="Q" style="edgeLabel;resizable=0;html=1;align=center;verticalAlign=middle;" parent="fdX2yPgVDNq5wQi_LwHz-175" connectable="0" vertex="1">
                    <mxGeometry relative="1" as="geometry"/>
                </mxCell>
                <mxCell id="fdX2yPgVDNq5wQi_LwHz-177" value="" style="endArrow=classic;html=1;rounded=0;" parent="tn4qRuFnmqHaKZbaOXFV-161" edge="1">
                    <mxGeometry relative="1" as="geometry">
                        <mxPoint y="80" as="sourcePoint"/>
                        <mxPoint x="50" y="80" as="targetPoint"/>
                    </mxGeometry>
                </mxCell>
                <mxCell id="fdX2yPgVDNq5wQi_LwHz-178" value="DATA" style="edgeLabel;resizable=0;html=1;align=center;verticalAlign=middle;" parent="fdX2yPgVDNq5wQi_LwHz-177" connectable="0" vertex="1">
                    <mxGeometry relative="1" as="geometry"/>
                </mxCell>
                <mxCell id="fdX2yPgVDNq5wQi_LwHz-179" value="" style="endArrow=classic;html=1;rounded=0;fontColor=#0000ff;strokeColor=#0000ff;" parent="tn4qRuFnmqHaKZbaOXFV-161" edge="1">
                    <mxGeometry relative="1" as="geometry">
                        <mxPoint x="150" y="40" as="sourcePoint"/>
                        <mxPoint x="200" y="40" as="targetPoint"/>
                    </mxGeometry>
                </mxCell>
                <mxCell id="fdX2yPgVDNq5wQi_LwHz-180" value="ERR_CNT_1_4" style="edgeLabel;resizable=0;html=1;align=center;verticalAlign=middle;fontSize=5;fontColor=#0000ff;" parent="fdX2yPgVDNq5wQi_LwHz-179" connectable="0" vertex="1">
                    <mxGeometry relative="1" as="geometry">
                        <mxPoint x="-5" as="offset"/>
                    </mxGeometry>
                </mxCell>
                <mxCell id="fdX2yPgVDNq5wQi_LwHz-181" value="" style="endArrow=classic;html=1;rounded=0;fontColor=#0000ff;strokeColor=#0000ff;" parent="tn4qRuFnmqHaKZbaOXFV-161" edge="1">
                    <mxGeometry relative="1" as="geometry">
                        <mxPoint x="150" y="60" as="sourcePoint"/>
                        <mxPoint x="200" y="60" as="targetPoint"/>
                    </mxGeometry>
                </mxCell>
                <mxCell id="fdX2yPgVDNq5wQi_LwHz-182" value="comp_out" style="edgeLabel;resizable=0;html=1;align=center;verticalAlign=middle;fontSize=7;fontColor=#0000ff;" parent="fdX2yPgVDNq5wQi_LwHz-181" connectable="0" vertex="1">
                    <mxGeometry relative="1" as="geometry">
                        <mxPoint x="-5" as="offset"/>
                    </mxGeometry>
                </mxCell>
                <mxCell id="tn4qRuFnmqHaKZbaOXFV-162" value="" style="group" parent="1" vertex="1" connectable="0">
                    <mxGeometry x="1690" y="288" width="200" height="100" as="geometry"/>
                </mxCell>
                <mxCell id="fdX2yPgVDNq5wQi_LwHz-183" value="LS_CNT_1_5" style="whiteSpace=wrap;html=1;aspect=fixed;noLabel=0;labelPadding=0;" parent="tn4qRuFnmqHaKZbaOXFV-162" vertex="1">
                    <mxGeometry x="50" width="100" height="100" as="geometry"/>
                </mxCell>
                <mxCell id="fdX2yPgVDNq5wQi_LwHz-184" value="" style="endArrow=classic;html=1;rounded=0;" parent="tn4qRuFnmqHaKZbaOXFV-162" edge="1">
                    <mxGeometry relative="1" as="geometry">
                        <mxPoint y="20" as="sourcePoint"/>
                        <mxPoint x="50" y="20" as="targetPoint"/>
                    </mxGeometry>
                </mxCell>
                <mxCell id="fdX2yPgVDNq5wQi_LwHz-185" value="CLK" style="edgeLabel;resizable=0;html=1;align=center;verticalAlign=middle;" parent="fdX2yPgVDNq5wQi_LwHz-184" connectable="0" vertex="1">
                    <mxGeometry relative="1" as="geometry"/>
                </mxCell>
                <mxCell id="fdX2yPgVDNq5wQi_LwHz-186" value="" style="endArrow=classic;html=1;rounded=0;" parent="tn4qRuFnmqHaKZbaOXFV-162" edge="1">
                    <mxGeometry relative="1" as="geometry">
                        <mxPoint y="40" as="sourcePoint"/>
                        <mxPoint x="50" y="40" as="targetPoint"/>
                    </mxGeometry>
                </mxCell>
                <mxCell id="fdX2yPgVDNq5wQi_LwHz-187" value="RST" style="edgeLabel;resizable=0;html=1;align=center;verticalAlign=middle;" parent="fdX2yPgVDNq5wQi_LwHz-186" connectable="0" vertex="1">
                    <mxGeometry relative="1" as="geometry"/>
                </mxCell>
                <mxCell id="fdX2yPgVDNq5wQi_LwHz-188" value="" style="endArrow=classic;html=1;rounded=0;" parent="tn4qRuFnmqHaKZbaOXFV-162" edge="1">
                    <mxGeometry relative="1" as="geometry">
                        <mxPoint y="60" as="sourcePoint"/>
                        <mxPoint x="50" y="60" as="targetPoint"/>
                    </mxGeometry>
                </mxCell>
                <mxCell id="fdX2yPgVDNq5wQi_LwHz-189" value="Q" style="edgeLabel;resizable=0;html=1;align=center;verticalAlign=middle;" parent="fdX2yPgVDNq5wQi_LwHz-188" connectable="0" vertex="1">
                    <mxGeometry relative="1" as="geometry"/>
                </mxCell>
                <mxCell id="fdX2yPgVDNq5wQi_LwHz-190" value="" style="endArrow=classic;html=1;rounded=0;" parent="tn4qRuFnmqHaKZbaOXFV-162" edge="1">
                    <mxGeometry relative="1" as="geometry">
                        <mxPoint y="80" as="sourcePoint"/>
                        <mxPoint x="50" y="80" as="targetPoint"/>
                    </mxGeometry>
                </mxCell>
                <mxCell id="fdX2yPgVDNq5wQi_LwHz-191" value="DATA" style="edgeLabel;resizable=0;html=1;align=center;verticalAlign=middle;" parent="fdX2yPgVDNq5wQi_LwHz-190" connectable="0" vertex="1">
                    <mxGeometry relative="1" as="geometry"/>
                </mxCell>
                <mxCell id="fdX2yPgVDNq5wQi_LwHz-192" value="" style="endArrow=classic;html=1;rounded=0;fontColor=#0000ff;strokeColor=#0000ff;" parent="tn4qRuFnmqHaKZbaOXFV-162" edge="1">
                    <mxGeometry relative="1" as="geometry">
                        <mxPoint x="150" y="40" as="sourcePoint"/>
                        <mxPoint x="200" y="40" as="targetPoint"/>
                    </mxGeometry>
                </mxCell>
                <mxCell id="fdX2yPgVDNq5wQi_LwHz-193" value="ERR_CNT_1_5" style="edgeLabel;resizable=0;html=1;align=center;verticalAlign=middle;fontSize=5;fontColor=#0000ff;" parent="fdX2yPgVDNq5wQi_LwHz-192" connectable="0" vertex="1">
                    <mxGeometry relative="1" as="geometry">
                        <mxPoint x="-5" as="offset"/>
                    </mxGeometry>
                </mxCell>
                <mxCell id="fdX2yPgVDNq5wQi_LwHz-194" value="" style="endArrow=classic;html=1;rounded=0;fontColor=#0000ff;strokeColor=#0000ff;" parent="tn4qRuFnmqHaKZbaOXFV-162" edge="1">
                    <mxGeometry relative="1" as="geometry">
                        <mxPoint x="150" y="60" as="sourcePoint"/>
                        <mxPoint x="200" y="60" as="targetPoint"/>
                    </mxGeometry>
                </mxCell>
                <mxCell id="fdX2yPgVDNq5wQi_LwHz-195" value="comp_out" style="edgeLabel;resizable=0;html=1;align=center;verticalAlign=middle;fontSize=7;fontColor=#0000ff;" parent="fdX2yPgVDNq5wQi_LwHz-194" connectable="0" vertex="1">
                    <mxGeometry relative="1" as="geometry">
                        <mxPoint x="-5" as="offset"/>
                    </mxGeometry>
                </mxCell>
                <mxCell id="tn4qRuFnmqHaKZbaOXFV-163" value="" style="group" parent="1" vertex="1" connectable="0">
                    <mxGeometry x="1690" y="408" width="200" height="100" as="geometry"/>
                </mxCell>
                <mxCell id="fdX2yPgVDNq5wQi_LwHz-196" value="LS_CNT_1_6" style="whiteSpace=wrap;html=1;aspect=fixed;noLabel=0;labelPadding=0;" parent="tn4qRuFnmqHaKZbaOXFV-163" vertex="1">
                    <mxGeometry x="50" width="100" height="100" as="geometry"/>
                </mxCell>
                <mxCell id="fdX2yPgVDNq5wQi_LwHz-197" value="" style="endArrow=classic;html=1;rounded=0;" parent="tn4qRuFnmqHaKZbaOXFV-163" edge="1">
                    <mxGeometry relative="1" as="geometry">
                        <mxPoint y="20" as="sourcePoint"/>
                        <mxPoint x="50" y="20" as="targetPoint"/>
                    </mxGeometry>
                </mxCell>
                <mxCell id="fdX2yPgVDNq5wQi_LwHz-198" value="CLK" style="edgeLabel;resizable=0;html=1;align=center;verticalAlign=middle;" parent="fdX2yPgVDNq5wQi_LwHz-197" connectable="0" vertex="1">
                    <mxGeometry relative="1" as="geometry"/>
                </mxCell>
                <mxCell id="fdX2yPgVDNq5wQi_LwHz-199" value="" style="endArrow=classic;html=1;rounded=0;" parent="tn4qRuFnmqHaKZbaOXFV-163" edge="1">
                    <mxGeometry relative="1" as="geometry">
                        <mxPoint y="40" as="sourcePoint"/>
                        <mxPoint x="50" y="40" as="targetPoint"/>
                    </mxGeometry>
                </mxCell>
                <mxCell id="fdX2yPgVDNq5wQi_LwHz-200" value="RST" style="edgeLabel;resizable=0;html=1;align=center;verticalAlign=middle;" parent="fdX2yPgVDNq5wQi_LwHz-199" connectable="0" vertex="1">
                    <mxGeometry relative="1" as="geometry"/>
                </mxCell>
                <mxCell id="fdX2yPgVDNq5wQi_LwHz-201" value="" style="endArrow=classic;html=1;rounded=0;" parent="tn4qRuFnmqHaKZbaOXFV-163" edge="1">
                    <mxGeometry relative="1" as="geometry">
                        <mxPoint y="60" as="sourcePoint"/>
                        <mxPoint x="50" y="60" as="targetPoint"/>
                    </mxGeometry>
                </mxCell>
                <mxCell id="fdX2yPgVDNq5wQi_LwHz-202" value="Q" style="edgeLabel;resizable=0;html=1;align=center;verticalAlign=middle;" parent="fdX2yPgVDNq5wQi_LwHz-201" connectable="0" vertex="1">
                    <mxGeometry relative="1" as="geometry"/>
                </mxCell>
                <mxCell id="fdX2yPgVDNq5wQi_LwHz-203" value="" style="endArrow=classic;html=1;rounded=0;" parent="tn4qRuFnmqHaKZbaOXFV-163" edge="1">
                    <mxGeometry relative="1" as="geometry">
                        <mxPoint y="80" as="sourcePoint"/>
                        <mxPoint x="50" y="80" as="targetPoint"/>
                    </mxGeometry>
                </mxCell>
                <mxCell id="fdX2yPgVDNq5wQi_LwHz-204" value="DATA" style="edgeLabel;resizable=0;html=1;align=center;verticalAlign=middle;" parent="fdX2yPgVDNq5wQi_LwHz-203" connectable="0" vertex="1">
                    <mxGeometry relative="1" as="geometry"/>
                </mxCell>
                <mxCell id="fdX2yPgVDNq5wQi_LwHz-205" value="" style="endArrow=classic;html=1;rounded=0;fontColor=#0000ff;strokeColor=#000000;" parent="tn4qRuFnmqHaKZbaOXFV-163" edge="1">
                    <mxGeometry relative="1" as="geometry">
                        <mxPoint x="150" y="40" as="sourcePoint"/>
                        <mxPoint x="200" y="40" as="targetPoint"/>
                    </mxGeometry>
                </mxCell>
                <mxCell id="fdX2yPgVDNq5wQi_LwHz-206" value="ERR_CNT_1_6" style="edgeLabel;resizable=0;html=1;align=center;verticalAlign=middle;fontSize=5;fontColor=#0000ff;" parent="fdX2yPgVDNq5wQi_LwHz-205" connectable="0" vertex="1">
                    <mxGeometry relative="1" as="geometry">
                        <mxPoint x="-5" as="offset"/>
                    </mxGeometry>
                </mxCell>
                <mxCell id="fdX2yPgVDNq5wQi_LwHz-207" value="" style="endArrow=classic;html=1;rounded=0;fontColor=#0000ff;strokeColor=#000000;" parent="tn4qRuFnmqHaKZbaOXFV-163" edge="1">
                    <mxGeometry relative="1" as="geometry">
                        <mxPoint x="150" y="60" as="sourcePoint"/>
                        <mxPoint x="200" y="60" as="targetPoint"/>
                    </mxGeometry>
                </mxCell>
                <mxCell id="fdX2yPgVDNq5wQi_LwHz-208" value="&lt;font style=&quot;font-size: 5px;&quot;&gt;comp_out_1_6&lt;br&gt;&lt;/font&gt;" style="edgeLabel;resizable=0;html=1;align=center;verticalAlign=middle;fontSize=7;fontColor=#0000ff;" parent="fdX2yPgVDNq5wQi_LwHz-207" connectable="0" vertex="1">
                    <mxGeometry relative="1" as="geometry">
                        <mxPoint x="-5" as="offset"/>
                    </mxGeometry>
                </mxCell>
                <mxCell id="tn4qRuFnmqHaKZbaOXFV-164" value="" style="group" parent="1" vertex="1" connectable="0">
                    <mxGeometry x="1690" y="548" width="200" height="60" as="geometry"/>
                </mxCell>
                <mxCell id="fdX2yPgVDNq5wQi_LwHz-210" value="" style="endArrow=classic;html=1;rounded=0;" parent="tn4qRuFnmqHaKZbaOXFV-164" edge="1">
                    <mxGeometry relative="1" as="geometry">
                        <mxPoint as="sourcePoint"/>
                        <mxPoint x="50" as="targetPoint"/>
                    </mxGeometry>
                </mxCell>
                <mxCell id="fdX2yPgVDNq5wQi_LwHz-211" value="CLK" style="edgeLabel;resizable=0;html=1;align=center;verticalAlign=middle;" parent="fdX2yPgVDNq5wQi_LwHz-210" connectable="0" vertex="1">
                    <mxGeometry relative="1" as="geometry"/>
                </mxCell>
                <mxCell id="fdX2yPgVDNq5wQi_LwHz-212" value="" style="endArrow=classic;html=1;rounded=0;" parent="tn4qRuFnmqHaKZbaOXFV-164" edge="1">
                    <mxGeometry relative="1" as="geometry">
                        <mxPoint y="20" as="sourcePoint"/>
                        <mxPoint x="50" y="20" as="targetPoint"/>
                    </mxGeometry>
                </mxCell>
                <mxCell id="fdX2yPgVDNq5wQi_LwHz-213" value="RST" style="edgeLabel;resizable=0;html=1;align=center;verticalAlign=middle;" parent="fdX2yPgVDNq5wQi_LwHz-212" connectable="0" vertex="1">
                    <mxGeometry relative="1" as="geometry"/>
                </mxCell>
                <mxCell id="fdX2yPgVDNq5wQi_LwHz-214" value="" style="endArrow=classic;html=1;rounded=0;" parent="tn4qRuFnmqHaKZbaOXFV-164" edge="1">
                    <mxGeometry relative="1" as="geometry">
                        <mxPoint y="40" as="sourcePoint"/>
                        <mxPoint x="50" y="40" as="targetPoint"/>
                    </mxGeometry>
                </mxCell>
                <mxCell id="fdX2yPgVDNq5wQi_LwHz-215" value="Q" style="edgeLabel;resizable=0;html=1;align=center;verticalAlign=middle;" parent="fdX2yPgVDNq5wQi_LwHz-214" connectable="0" vertex="1">
                    <mxGeometry relative="1" as="geometry"/>
                </mxCell>
                <mxCell id="fdX2yPgVDNq5wQi_LwHz-216" value="" style="endArrow=classic;html=1;rounded=0;" parent="tn4qRuFnmqHaKZbaOXFV-164" edge="1">
                    <mxGeometry relative="1" as="geometry">
                        <mxPoint y="60" as="sourcePoint"/>
                        <mxPoint x="50" y="60" as="targetPoint"/>
                    </mxGeometry>
                </mxCell>
                <mxCell id="fdX2yPgVDNq5wQi_LwHz-217" value="DATA" style="edgeLabel;resizable=0;html=1;align=center;verticalAlign=middle;" parent="fdX2yPgVDNq5wQi_LwHz-216" connectable="0" vertex="1">
                    <mxGeometry relative="1" as="geometry"/>
                </mxCell>
                <mxCell id="fdX2yPgVDNq5wQi_LwHz-218" value="" style="endArrow=classic;html=1;rounded=0;fontColor=#0000ff;strokeColor=#000000;" parent="tn4qRuFnmqHaKZbaOXFV-164" edge="1">
                    <mxGeometry relative="1" as="geometry">
                        <mxPoint x="150" y="20" as="sourcePoint"/>
                        <mxPoint x="200" y="20" as="targetPoint"/>
                    </mxGeometry>
                </mxCell>
                <mxCell id="fdX2yPgVDNq5wQi_LwHz-219" value="ERR_CNT_1_7" style="edgeLabel;resizable=0;html=1;align=center;verticalAlign=middle;fontSize=5;fontColor=#0000ff;" parent="fdX2yPgVDNq5wQi_LwHz-218" connectable="0" vertex="1">
                    <mxGeometry relative="1" as="geometry">
                        <mxPoint x="-5" as="offset"/>
                    </mxGeometry>
                </mxCell>
                <mxCell id="fdX2yPgVDNq5wQi_LwHz-220" value="" style="endArrow=classic;html=1;rounded=0;fontColor=#0000ff;strokeColor=#000000;" parent="tn4qRuFnmqHaKZbaOXFV-164" edge="1">
                    <mxGeometry relative="1" as="geometry">
                        <mxPoint x="150" y="40" as="sourcePoint"/>
                        <mxPoint x="200" y="40" as="targetPoint"/>
                    </mxGeometry>
                </mxCell>
                <mxCell id="fdX2yPgVDNq5wQi_LwHz-221" value="&lt;font style=&quot;font-size: 5px;&quot;&gt;comp_out_1_7&lt;br&gt;&lt;/font&gt;" style="edgeLabel;resizable=0;html=1;align=center;verticalAlign=middle;fontSize=7;fontColor=#0000ff;" parent="fdX2yPgVDNq5wQi_LwHz-220" connectable="0" vertex="1">
                    <mxGeometry relative="1" as="geometry">
                        <mxPoint x="-5" as="offset"/>
                    </mxGeometry>
                </mxCell>
                <mxCell id="tn4qRuFnmqHaKZbaOXFV-165" value="" style="group" parent="1" vertex="1" connectable="0">
                    <mxGeometry x="1690" y="648" width="200" height="100" as="geometry"/>
                </mxCell>
                <mxCell id="fdX2yPgVDNq5wQi_LwHz-222" value="LS_CNT_1_8" style="whiteSpace=wrap;html=1;aspect=fixed;noLabel=0;labelPadding=0;" parent="tn4qRuFnmqHaKZbaOXFV-165" vertex="1">
                    <mxGeometry x="50" width="100" height="100" as="geometry"/>
                </mxCell>
                <mxCell id="fdX2yPgVDNq5wQi_LwHz-223" value="" style="endArrow=classic;html=1;rounded=0;" parent="tn4qRuFnmqHaKZbaOXFV-165" edge="1">
                    <mxGeometry relative="1" as="geometry">
                        <mxPoint y="20" as="sourcePoint"/>
                        <mxPoint x="50" y="20" as="targetPoint"/>
                    </mxGeometry>
                </mxCell>
                <mxCell id="fdX2yPgVDNq5wQi_LwHz-224" value="CLK" style="edgeLabel;resizable=0;html=1;align=center;verticalAlign=middle;" parent="fdX2yPgVDNq5wQi_LwHz-223" connectable="0" vertex="1">
                    <mxGeometry relative="1" as="geometry"/>
                </mxCell>
                <mxCell id="fdX2yPgVDNq5wQi_LwHz-225" value="" style="endArrow=classic;html=1;rounded=0;" parent="tn4qRuFnmqHaKZbaOXFV-165" edge="1">
                    <mxGeometry relative="1" as="geometry">
                        <mxPoint y="40" as="sourcePoint"/>
                        <mxPoint x="50" y="40" as="targetPoint"/>
                    </mxGeometry>
                </mxCell>
                <mxCell id="fdX2yPgVDNq5wQi_LwHz-226" value="RST" style="edgeLabel;resizable=0;html=1;align=center;verticalAlign=middle;" parent="fdX2yPgVDNq5wQi_LwHz-225" connectable="0" vertex="1">
                    <mxGeometry relative="1" as="geometry"/>
                </mxCell>
                <mxCell id="fdX2yPgVDNq5wQi_LwHz-227" value="" style="endArrow=classic;html=1;rounded=0;" parent="tn4qRuFnmqHaKZbaOXFV-165" edge="1">
                    <mxGeometry relative="1" as="geometry">
                        <mxPoint y="60" as="sourcePoint"/>
                        <mxPoint x="50" y="60" as="targetPoint"/>
                    </mxGeometry>
                </mxCell>
                <mxCell id="fdX2yPgVDNq5wQi_LwHz-228" value="Q" style="edgeLabel;resizable=0;html=1;align=center;verticalAlign=middle;" parent="fdX2yPgVDNq5wQi_LwHz-227" connectable="0" vertex="1">
                    <mxGeometry relative="1" as="geometry"/>
                </mxCell>
                <mxCell id="fdX2yPgVDNq5wQi_LwHz-229" value="" style="endArrow=classic;html=1;rounded=0;" parent="tn4qRuFnmqHaKZbaOXFV-165" edge="1">
                    <mxGeometry relative="1" as="geometry">
                        <mxPoint y="80" as="sourcePoint"/>
                        <mxPoint x="50" y="80" as="targetPoint"/>
                    </mxGeometry>
                </mxCell>
                <mxCell id="fdX2yPgVDNq5wQi_LwHz-230" value="DATA" style="edgeLabel;resizable=0;html=1;align=center;verticalAlign=middle;" parent="fdX2yPgVDNq5wQi_LwHz-229" connectable="0" vertex="1">
                    <mxGeometry relative="1" as="geometry"/>
                </mxCell>
                <mxCell id="fdX2yPgVDNq5wQi_LwHz-231" value="" style="endArrow=classic;html=1;rounded=0;fontColor=#0000ff;strokeColor=#000000;" parent="tn4qRuFnmqHaKZbaOXFV-165" edge="1">
                    <mxGeometry relative="1" as="geometry">
                        <mxPoint x="150" y="40" as="sourcePoint"/>
                        <mxPoint x="200" y="40" as="targetPoint"/>
                    </mxGeometry>
                </mxCell>
                <mxCell id="fdX2yPgVDNq5wQi_LwHz-232" value="ERR_CNT_1_8" style="edgeLabel;resizable=0;html=1;align=center;verticalAlign=middle;fontSize=5;fontColor=#0000ff;" parent="fdX2yPgVDNq5wQi_LwHz-231" connectable="0" vertex="1">
                    <mxGeometry relative="1" as="geometry">
                        <mxPoint x="-5" as="offset"/>
                    </mxGeometry>
                </mxCell>
                <mxCell id="fdX2yPgVDNq5wQi_LwHz-233" value="" style="endArrow=classic;html=1;rounded=0;fontColor=#0000ff;strokeColor=#000000;" parent="tn4qRuFnmqHaKZbaOXFV-165" edge="1">
                    <mxGeometry relative="1" as="geometry">
                        <mxPoint x="150" y="60" as="sourcePoint"/>
                        <mxPoint x="200" y="60" as="targetPoint"/>
                    </mxGeometry>
                </mxCell>
                <mxCell id="fdX2yPgVDNq5wQi_LwHz-234" value="&lt;font style=&quot;font-size: 5px;&quot;&gt;comp_out_1_8&lt;/font&gt;" style="edgeLabel;resizable=0;html=1;align=center;verticalAlign=middle;fontSize=7;fontColor=#0000ff;" parent="fdX2yPgVDNq5wQi_LwHz-233" connectable="0" vertex="1">
                    <mxGeometry relative="1" as="geometry">
                        <mxPoint x="-5" as="offset"/>
                    </mxGeometry>
                </mxCell>
                <mxCell id="tn4qRuFnmqHaKZbaOXFV-166" value="" style="group" parent="1" vertex="1" connectable="0">
                    <mxGeometry x="1690" y="768" width="200" height="100" as="geometry"/>
                </mxCell>
                <mxCell id="fdX2yPgVDNq5wQi_LwHz-235" value="LS_CNT_1_9" style="whiteSpace=wrap;html=1;aspect=fixed;noLabel=0;labelPadding=0;" parent="tn4qRuFnmqHaKZbaOXFV-166" vertex="1">
                    <mxGeometry x="50" width="100" height="100" as="geometry"/>
                </mxCell>
                <mxCell id="fdX2yPgVDNq5wQi_LwHz-236" value="" style="endArrow=classic;html=1;rounded=0;" parent="tn4qRuFnmqHaKZbaOXFV-166" edge="1">
                    <mxGeometry relative="1" as="geometry">
                        <mxPoint y="20" as="sourcePoint"/>
                        <mxPoint x="50" y="20" as="targetPoint"/>
                    </mxGeometry>
                </mxCell>
                <mxCell id="fdX2yPgVDNq5wQi_LwHz-237" value="CLK" style="edgeLabel;resizable=0;html=1;align=center;verticalAlign=middle;" parent="fdX2yPgVDNq5wQi_LwHz-236" connectable="0" vertex="1">
                    <mxGeometry relative="1" as="geometry"/>
                </mxCell>
                <mxCell id="fdX2yPgVDNq5wQi_LwHz-238" value="" style="endArrow=classic;html=1;rounded=0;" parent="tn4qRuFnmqHaKZbaOXFV-166" edge="1">
                    <mxGeometry relative="1" as="geometry">
                        <mxPoint y="40" as="sourcePoint"/>
                        <mxPoint x="50" y="40" as="targetPoint"/>
                    </mxGeometry>
                </mxCell>
                <mxCell id="fdX2yPgVDNq5wQi_LwHz-239" value="RST" style="edgeLabel;resizable=0;html=1;align=center;verticalAlign=middle;" parent="fdX2yPgVDNq5wQi_LwHz-238" connectable="0" vertex="1">
                    <mxGeometry relative="1" as="geometry"/>
                </mxCell>
                <mxCell id="fdX2yPgVDNq5wQi_LwHz-240" value="" style="endArrow=classic;html=1;rounded=0;" parent="tn4qRuFnmqHaKZbaOXFV-166" edge="1">
                    <mxGeometry relative="1" as="geometry">
                        <mxPoint y="60" as="sourcePoint"/>
                        <mxPoint x="50" y="60" as="targetPoint"/>
                    </mxGeometry>
                </mxCell>
                <mxCell id="fdX2yPgVDNq5wQi_LwHz-241" value="Q" style="edgeLabel;resizable=0;html=1;align=center;verticalAlign=middle;" parent="fdX2yPgVDNq5wQi_LwHz-240" connectable="0" vertex="1">
                    <mxGeometry relative="1" as="geometry"/>
                </mxCell>
                <mxCell id="fdX2yPgVDNq5wQi_LwHz-242" value="" style="endArrow=classic;html=1;rounded=0;" parent="tn4qRuFnmqHaKZbaOXFV-166" edge="1">
                    <mxGeometry relative="1" as="geometry">
                        <mxPoint y="80" as="sourcePoint"/>
                        <mxPoint x="50" y="80" as="targetPoint"/>
                    </mxGeometry>
                </mxCell>
                <mxCell id="fdX2yPgVDNq5wQi_LwHz-243" value="DATA" style="edgeLabel;resizable=0;html=1;align=center;verticalAlign=middle;" parent="fdX2yPgVDNq5wQi_LwHz-242" connectable="0" vertex="1">
                    <mxGeometry relative="1" as="geometry"/>
                </mxCell>
                <mxCell id="fdX2yPgVDNq5wQi_LwHz-244" value="" style="endArrow=classic;html=1;rounded=0;fontColor=#0000ff;strokeColor=#000000;" parent="tn4qRuFnmqHaKZbaOXFV-166" edge="1">
                    <mxGeometry relative="1" as="geometry">
                        <mxPoint x="150" y="40" as="sourcePoint"/>
                        <mxPoint x="200" y="40" as="targetPoint"/>
                    </mxGeometry>
                </mxCell>
                <mxCell id="fdX2yPgVDNq5wQi_LwHz-245" value="ERR_CNT_1_9" style="edgeLabel;resizable=0;html=1;align=center;verticalAlign=middle;fontSize=5;fontColor=#0000ff;" parent="fdX2yPgVDNq5wQi_LwHz-244" connectable="0" vertex="1">
                    <mxGeometry relative="1" as="geometry">
                        <mxPoint x="-5" as="offset"/>
                    </mxGeometry>
                </mxCell>
                <mxCell id="fdX2yPgVDNq5wQi_LwHz-246" value="" style="endArrow=classic;html=1;rounded=0;fontColor=#0000ff;strokeColor=#000000;" parent="tn4qRuFnmqHaKZbaOXFV-166" edge="1">
                    <mxGeometry relative="1" as="geometry">
                        <mxPoint x="150" y="60" as="sourcePoint"/>
                        <mxPoint x="200" y="60" as="targetPoint"/>
                    </mxGeometry>
                </mxCell>
                <mxCell id="fdX2yPgVDNq5wQi_LwHz-247" value="&lt;font style=&quot;font-size: 5px;&quot;&gt;comp_out_1_9&lt;/font&gt;" style="edgeLabel;resizable=0;html=1;align=center;verticalAlign=middle;fontSize=7;fontColor=#0000ff;" parent="fdX2yPgVDNq5wQi_LwHz-246" connectable="0" vertex="1">
                    <mxGeometry relative="1" as="geometry">
                        <mxPoint x="-5" as="offset"/>
                    </mxGeometry>
                </mxCell>
                <mxCell id="tn4qRuFnmqHaKZbaOXFV-168" value="" style="group" parent="1" vertex="1" connectable="0">
                    <mxGeometry x="1720" y="888" width="400" height="242" as="geometry"/>
                </mxCell>
                <mxCell id="tn4qRuFnmqHaKZbaOXFV-3" value="DFF_DATA_OUTPUT" style="whiteSpace=wrap;html=1;aspect=fixed;container=0;" parent="tn4qRuFnmqHaKZbaOXFV-168" vertex="1">
                    <mxGeometry x="70" width="242" height="242" as="geometry"/>
                </mxCell>
                <mxCell id="tn4qRuFnmqHaKZbaOXFV-4" value="" style="endArrow=classic;html=1;rounded=0;fontColor=#0000ff;" parent="tn4qRuFnmqHaKZbaOXFV-168" edge="1">
                    <mxGeometry relative="1" as="geometry">
                        <mxPoint y="12" as="sourcePoint"/>
                        <mxPoint x="70" y="12" as="targetPoint"/>
                    </mxGeometry>
                </mxCell>
                <mxCell id="tn4qRuFnmqHaKZbaOXFV-5" value="data_clk" style="edgeLabel;resizable=0;html=1;align=center;verticalAlign=middle;fontSize=5;fontColor=#ff7b00;container=0;" parent="tn4qRuFnmqHaKZbaOXFV-4" connectable="0" vertex="1">
                    <mxGeometry relative="1" as="geometry"/>
                </mxCell>
                <mxCell id="tn4qRuFnmqHaKZbaOXFV-6" value="RPi GPIO_8" style="edgeLabel;resizable=0;html=1;align=left;verticalAlign=bottom;fontSize=5;fontColor=#ff7b00;container=0;" parent="tn4qRuFnmqHaKZbaOXFV-4" connectable="0" vertex="1">
                    <mxGeometry x="-1" relative="1" as="geometry">
                        <mxPoint x="-10" as="offset"/>
                    </mxGeometry>
                </mxCell>
                <mxCell id="tn4qRuFnmqHaKZbaOXFV-70" value="" style="endArrow=classic;html=1;rounded=0;fontColor=#0000ff;" parent="tn4qRuFnmqHaKZbaOXFV-168" edge="1">
                    <mxGeometry relative="1" as="geometry">
                        <mxPoint y="22" as="sourcePoint"/>
                        <mxPoint x="70" y="22" as="targetPoint"/>
                    </mxGeometry>
                </mxCell>
                <mxCell id="tn4qRuFnmqHaKZbaOXFV-71" value="reset" style="edgeLabel;resizable=0;html=1;align=center;verticalAlign=middle;fontSize=5;fontColor=#FF7B00;container=0;" parent="tn4qRuFnmqHaKZbaOXFV-70" connectable="0" vertex="1">
                    <mxGeometry relative="1" as="geometry"/>
                </mxCell>
                <mxCell id="tn4qRuFnmqHaKZbaOXFV-72" value="RPi GPIO_5" style="edgeLabel;resizable=0;html=1;align=left;verticalAlign=bottom;fontSize=5;fontColor=#ff7b00;container=0;" parent="tn4qRuFnmqHaKZbaOXFV-70" connectable="0" vertex="1">
                    <mxGeometry x="-1" relative="1" as="geometry">
                        <mxPoint x="-10" as="offset"/>
                    </mxGeometry>
                </mxCell>
                <mxCell id="tn4qRuFnmqHaKZbaOXFV-73" value="" style="endArrow=classic;html=1;rounded=0;fontColor=#0000ff;" parent="tn4qRuFnmqHaKZbaOXFV-168" edge="1">
                    <mxGeometry relative="1" as="geometry">
                        <mxPoint y="32" as="sourcePoint"/>
                        <mxPoint x="70" y="32" as="targetPoint"/>
                    </mxGeometry>
                </mxCell>
                <mxCell id="tn4qRuFnmqHaKZbaOXFV-74" value="save_data" style="edgeLabel;resizable=0;html=1;align=center;verticalAlign=middle;fontSize=5;fontColor=#FF7B00;container=0;" parent="tn4qRuFnmqHaKZbaOXFV-73" connectable="0" vertex="1">
                    <mxGeometry relative="1" as="geometry"/>
                </mxCell>
                <mxCell id="tn4qRuFnmqHaKZbaOXFV-75" value="RPi GPIO_7" style="edgeLabel;resizable=0;html=1;align=left;verticalAlign=bottom;fontSize=5;fontColor=#FF7B00;container=0;" parent="tn4qRuFnmqHaKZbaOXFV-73" connectable="0" vertex="1">
                    <mxGeometry x="-1" relative="1" as="geometry">
                        <mxPoint x="-10" as="offset"/>
                    </mxGeometry>
                </mxCell>
                <mxCell id="tn4qRuFnmqHaKZbaOXFV-76" value="" style="endArrow=classic;html=1;rounded=0;fontColor=#0000ff;" parent="tn4qRuFnmqHaKZbaOXFV-168" edge="1">
                    <mxGeometry relative="1" as="geometry">
                        <mxPoint y="42" as="sourcePoint"/>
                        <mxPoint x="70" y="42" as="targetPoint"/>
                    </mxGeometry>
                </mxCell>
                <mxCell id="tn4qRuFnmqHaKZbaOXFV-77" value="DFF_ERROR_0_0" style="edgeLabel;resizable=0;html=1;align=center;verticalAlign=middle;fontSize=5;fontColor=#0000ff;container=0;" parent="tn4qRuFnmqHaKZbaOXFV-76" connectable="0" vertex="1">
                    <mxGeometry relative="1" as="geometry"/>
                </mxCell>
                <mxCell id="tn4qRuFnmqHaKZbaOXFV-78" value="ERR_CNT_0_0" style="edgeLabel;resizable=0;html=1;align=left;verticalAlign=bottom;fontSize=5;fontColor=#0000ff;container=0;" parent="tn4qRuFnmqHaKZbaOXFV-76" connectable="0" vertex="1">
                    <mxGeometry x="-1" relative="1" as="geometry">
                        <mxPoint x="-30" as="offset"/>
                    </mxGeometry>
                </mxCell>
                <mxCell id="tn4qRuFnmqHaKZbaOXFV-79" value="" style="endArrow=classic;html=1;rounded=0;fontColor=#0000ff;" parent="tn4qRuFnmqHaKZbaOXFV-168" edge="1">
                    <mxGeometry relative="1" as="geometry">
                        <mxPoint y="52" as="sourcePoint"/>
                        <mxPoint x="70" y="52" as="targetPoint"/>
                    </mxGeometry>
                </mxCell>
                <mxCell id="tn4qRuFnmqHaKZbaOXFV-80" value="DFF_ERROR_0_1" style="edgeLabel;resizable=0;html=1;align=center;verticalAlign=middle;fontSize=5;fontColor=#0000ff;container=0;" parent="tn4qRuFnmqHaKZbaOXFV-79" connectable="0" vertex="1">
                    <mxGeometry relative="1" as="geometry"/>
                </mxCell>
                <mxCell id="tn4qRuFnmqHaKZbaOXFV-81" value="ERR_CNT_0_1" style="edgeLabel;resizable=0;html=1;align=left;verticalAlign=bottom;fontSize=5;fontColor=#0000ff;container=0;" parent="tn4qRuFnmqHaKZbaOXFV-79" connectable="0" vertex="1">
                    <mxGeometry x="-1" relative="1" as="geometry">
                        <mxPoint x="-30" as="offset"/>
                    </mxGeometry>
                </mxCell>
                <mxCell id="tn4qRuFnmqHaKZbaOXFV-82" value="" style="endArrow=classic;html=1;rounded=0;fontColor=#0000ff;" parent="tn4qRuFnmqHaKZbaOXFV-168" edge="1">
                    <mxGeometry relative="1" as="geometry">
                        <mxPoint y="62" as="sourcePoint"/>
                        <mxPoint x="70" y="62" as="targetPoint"/>
                    </mxGeometry>
                </mxCell>
                <mxCell id="tn4qRuFnmqHaKZbaOXFV-83" value="DFF_ERROR_0_2" style="edgeLabel;resizable=0;html=1;align=center;verticalAlign=middle;fontSize=5;fontColor=#0000ff;container=0;" parent="tn4qRuFnmqHaKZbaOXFV-82" connectable="0" vertex="1">
                    <mxGeometry relative="1" as="geometry"/>
                </mxCell>
                <mxCell id="tn4qRuFnmqHaKZbaOXFV-84" value="ERR_CNT_0_2" style="edgeLabel;resizable=0;html=1;align=left;verticalAlign=bottom;fontSize=5;fontColor=#0000ff;container=0;" parent="tn4qRuFnmqHaKZbaOXFV-82" connectable="0" vertex="1">
                    <mxGeometry x="-1" relative="1" as="geometry">
                        <mxPoint x="-30" as="offset"/>
                    </mxGeometry>
                </mxCell>
                <mxCell id="tn4qRuFnmqHaKZbaOXFV-85" value="" style="endArrow=classic;html=1;rounded=0;fontColor=#0000ff;" parent="tn4qRuFnmqHaKZbaOXFV-168" edge="1">
                    <mxGeometry relative="1" as="geometry">
                        <mxPoint y="72" as="sourcePoint"/>
                        <mxPoint x="70" y="72" as="targetPoint"/>
                    </mxGeometry>
                </mxCell>
                <mxCell id="tn4qRuFnmqHaKZbaOXFV-86" value="DFF_ERROR_0_3" style="edgeLabel;resizable=0;html=1;align=center;verticalAlign=middle;fontSize=5;fontColor=#0000ff;container=0;" parent="tn4qRuFnmqHaKZbaOXFV-85" connectable="0" vertex="1">
                    <mxGeometry relative="1" as="geometry"/>
                </mxCell>
                <mxCell id="tn4qRuFnmqHaKZbaOXFV-87" value="ERR_CNT_0_3" style="edgeLabel;resizable=0;html=1;align=left;verticalAlign=bottom;fontSize=5;fontColor=#0000ff;container=0;" parent="tn4qRuFnmqHaKZbaOXFV-85" connectable="0" vertex="1">
                    <mxGeometry x="-1" relative="1" as="geometry">
                        <mxPoint x="-30" as="offset"/>
                    </mxGeometry>
                </mxCell>
                <mxCell id="tn4qRuFnmqHaKZbaOXFV-88" value="" style="endArrow=classic;html=1;rounded=0;fontColor=#0000ff;" parent="tn4qRuFnmqHaKZbaOXFV-168" edge="1">
                    <mxGeometry relative="1" as="geometry">
                        <mxPoint y="82" as="sourcePoint"/>
                        <mxPoint x="70" y="82" as="targetPoint"/>
                    </mxGeometry>
                </mxCell>
                <mxCell id="tn4qRuFnmqHaKZbaOXFV-89" value="DFF_ERROR_0_4" style="edgeLabel;resizable=0;html=1;align=center;verticalAlign=middle;fontSize=5;fontColor=#0000ff;container=0;" parent="tn4qRuFnmqHaKZbaOXFV-88" connectable="0" vertex="1">
                    <mxGeometry relative="1" as="geometry"/>
                </mxCell>
                <mxCell id="tn4qRuFnmqHaKZbaOXFV-90" value="ERR_CNT_0_4" style="edgeLabel;resizable=0;html=1;align=left;verticalAlign=bottom;fontSize=5;fontColor=#0000ff;container=0;" parent="tn4qRuFnmqHaKZbaOXFV-88" connectable="0" vertex="1">
                    <mxGeometry x="-1" relative="1" as="geometry">
                        <mxPoint x="-30" as="offset"/>
                    </mxGeometry>
                </mxCell>
                <mxCell id="tn4qRuFnmqHaKZbaOXFV-94" value="" style="endArrow=classic;html=1;rounded=0;fontColor=#0000ff;" parent="tn4qRuFnmqHaKZbaOXFV-168" edge="1">
                    <mxGeometry relative="1" as="geometry">
                        <mxPoint y="92" as="sourcePoint"/>
                        <mxPoint x="70" y="92" as="targetPoint"/>
                    </mxGeometry>
                </mxCell>
                <mxCell id="tn4qRuFnmqHaKZbaOXFV-95" value="DFF_ERROR_0_5" style="edgeLabel;resizable=0;html=1;align=center;verticalAlign=middle;fontSize=5;fontColor=#0000ff;container=0;" parent="tn4qRuFnmqHaKZbaOXFV-94" connectable="0" vertex="1">
                    <mxGeometry relative="1" as="geometry"/>
                </mxCell>
                <mxCell id="tn4qRuFnmqHaKZbaOXFV-96" value="ERR_CNT_0_5" style="edgeLabel;resizable=0;html=1;align=left;verticalAlign=bottom;fontSize=5;fontColor=#0000ff;container=0;" parent="tn4qRuFnmqHaKZbaOXFV-94" connectable="0" vertex="1">
                    <mxGeometry x="-1" relative="1" as="geometry">
                        <mxPoint x="-30" as="offset"/>
                    </mxGeometry>
                </mxCell>
                <mxCell id="tn4qRuFnmqHaKZbaOXFV-97" value="" style="endArrow=classic;html=1;rounded=0;fontColor=#0000ff;" parent="tn4qRuFnmqHaKZbaOXFV-168" edge="1">
                    <mxGeometry relative="1" as="geometry">
                        <mxPoint y="102" as="sourcePoint"/>
                        <mxPoint x="70" y="102" as="targetPoint"/>
                    </mxGeometry>
                </mxCell>
                <mxCell id="tn4qRuFnmqHaKZbaOXFV-98" value="DFF_ERROR_0_6" style="edgeLabel;resizable=0;html=1;align=center;verticalAlign=middle;fontSize=5;fontColor=#0000ff;container=0;" parent="tn4qRuFnmqHaKZbaOXFV-97" connectable="0" vertex="1">
                    <mxGeometry relative="1" as="geometry"/>
                </mxCell>
                <mxCell id="tn4qRuFnmqHaKZbaOXFV-99" value="ERR_CNT_0_6" style="edgeLabel;resizable=0;html=1;align=left;verticalAlign=bottom;fontSize=5;fontColor=#0000ff;container=0;" parent="tn4qRuFnmqHaKZbaOXFV-97" connectable="0" vertex="1">
                    <mxGeometry x="-1" relative="1" as="geometry">
                        <mxPoint x="-30" as="offset"/>
                    </mxGeometry>
                </mxCell>
                <mxCell id="tn4qRuFnmqHaKZbaOXFV-100" value="" style="endArrow=classic;html=1;rounded=0;fontColor=#0000ff;" parent="tn4qRuFnmqHaKZbaOXFV-168" edge="1">
                    <mxGeometry relative="1" as="geometry">
                        <mxPoint y="112.35000000000002" as="sourcePoint"/>
                        <mxPoint x="70" y="112.35000000000002" as="targetPoint"/>
                    </mxGeometry>
                </mxCell>
                <mxCell id="tn4qRuFnmqHaKZbaOXFV-101" value="DFF_ERROR_0_7" style="edgeLabel;resizable=0;html=1;align=center;verticalAlign=middle;fontSize=5;fontColor=#0000ff;container=0;" parent="tn4qRuFnmqHaKZbaOXFV-100" connectable="0" vertex="1">
                    <mxGeometry relative="1" as="geometry"/>
                </mxCell>
                <mxCell id="tn4qRuFnmqHaKZbaOXFV-102" value="ERR_CNT_0_7" style="edgeLabel;resizable=0;html=1;align=left;verticalAlign=bottom;fontSize=5;fontColor=#0000ff;container=0;" parent="tn4qRuFnmqHaKZbaOXFV-100" connectable="0" vertex="1">
                    <mxGeometry x="-1" relative="1" as="geometry">
                        <mxPoint x="-30" as="offset"/>
                    </mxGeometry>
                </mxCell>
                <mxCell id="tn4qRuFnmqHaKZbaOXFV-103" value="" style="endArrow=classic;html=1;rounded=0;fontColor=#0000ff;" parent="tn4qRuFnmqHaKZbaOXFV-168" edge="1">
                    <mxGeometry relative="1" as="geometry">
                        <mxPoint y="122" as="sourcePoint"/>
                        <mxPoint x="70" y="122" as="targetPoint"/>
                    </mxGeometry>
                </mxCell>
                <mxCell id="tn4qRuFnmqHaKZbaOXFV-104" value="DFF_ERROR_0_8" style="edgeLabel;resizable=0;html=1;align=center;verticalAlign=middle;fontSize=5;fontColor=#0000ff;container=0;" parent="tn4qRuFnmqHaKZbaOXFV-103" connectable="0" vertex="1">
                    <mxGeometry relative="1" as="geometry"/>
                </mxCell>
                <mxCell id="tn4qRuFnmqHaKZbaOXFV-105" value="ERR_CNT_0_8" style="edgeLabel;resizable=0;html=1;align=left;verticalAlign=bottom;fontSize=5;fontColor=#0000ff;container=0;" parent="tn4qRuFnmqHaKZbaOXFV-103" connectable="0" vertex="1">
                    <mxGeometry x="-1" relative="1" as="geometry">
                        <mxPoint x="-30" as="offset"/>
                    </mxGeometry>
                </mxCell>
                <mxCell id="tn4qRuFnmqHaKZbaOXFV-106" value="" style="endArrow=classic;html=1;rounded=0;fontColor=#0000ff;" parent="tn4qRuFnmqHaKZbaOXFV-168" edge="1">
                    <mxGeometry relative="1" as="geometry">
                        <mxPoint y="132" as="sourcePoint"/>
                        <mxPoint x="70" y="132" as="targetPoint"/>
                    </mxGeometry>
                </mxCell>
                <mxCell id="tn4qRuFnmqHaKZbaOXFV-107" value="DFF_ERROR_0_9" style="edgeLabel;resizable=0;html=1;align=center;verticalAlign=middle;fontSize=5;fontColor=#0000ff;container=0;" parent="tn4qRuFnmqHaKZbaOXFV-106" connectable="0" vertex="1">
                    <mxGeometry relative="1" as="geometry"/>
                </mxCell>
                <mxCell id="tn4qRuFnmqHaKZbaOXFV-108" value="ERR_CNT_0_9" style="edgeLabel;resizable=0;html=1;align=left;verticalAlign=bottom;fontSize=5;fontColor=#0000ff;container=0;" parent="tn4qRuFnmqHaKZbaOXFV-106" connectable="0" vertex="1">
                    <mxGeometry x="-1" relative="1" as="geometry">
                        <mxPoint x="-30" as="offset"/>
                    </mxGeometry>
                </mxCell>
                <mxCell id="tn4qRuFnmqHaKZbaOXFV-109" value="" style="endArrow=classic;html=1;rounded=0;fontColor=#0000ff;" parent="tn4qRuFnmqHaKZbaOXFV-168" edge="1">
                    <mxGeometry relative="1" as="geometry">
                        <mxPoint y="142" as="sourcePoint"/>
                        <mxPoint x="70" y="142" as="targetPoint"/>
                    </mxGeometry>
                </mxCell>
                <mxCell id="tn4qRuFnmqHaKZbaOXFV-110" value="DFF_ERROR_1_0" style="edgeLabel;resizable=0;html=1;align=center;verticalAlign=middle;fontSize=5;fontColor=#0000ff;container=0;" parent="tn4qRuFnmqHaKZbaOXFV-109" connectable="0" vertex="1">
                    <mxGeometry relative="1" as="geometry"/>
                </mxCell>
                <mxCell id="tn4qRuFnmqHaKZbaOXFV-111" value="ERR_CNT_1_0" style="edgeLabel;resizable=0;html=1;align=left;verticalAlign=bottom;fontSize=5;fontColor=#0000ff;container=0;" parent="tn4qRuFnmqHaKZbaOXFV-109" connectable="0" vertex="1">
                    <mxGeometry x="-1" relative="1" as="geometry">
                        <mxPoint x="-30" as="offset"/>
                    </mxGeometry>
                </mxCell>
                <mxCell id="tn4qRuFnmqHaKZbaOXFV-112" value="" style="endArrow=classic;html=1;rounded=0;fontColor=#0000ff;" parent="tn4qRuFnmqHaKZbaOXFV-168" edge="1">
                    <mxGeometry relative="1" as="geometry">
                        <mxPoint y="152" as="sourcePoint"/>
                        <mxPoint x="70" y="152" as="targetPoint"/>
                    </mxGeometry>
                </mxCell>
                <mxCell id="tn4qRuFnmqHaKZbaOXFV-113" value="DFF_ERROR_1_1" style="edgeLabel;resizable=0;html=1;align=center;verticalAlign=middle;fontSize=5;fontColor=#0000ff;container=0;" parent="tn4qRuFnmqHaKZbaOXFV-112" connectable="0" vertex="1">
                    <mxGeometry relative="1" as="geometry"/>
                </mxCell>
                <mxCell id="tn4qRuFnmqHaKZbaOXFV-114" value="ERR_CNT_1_1" style="edgeLabel;resizable=0;html=1;align=left;verticalAlign=bottom;fontSize=5;fontColor=#0000ff;container=0;" parent="tn4qRuFnmqHaKZbaOXFV-112" connectable="0" vertex="1">
                    <mxGeometry x="-1" relative="1" as="geometry">
                        <mxPoint x="-30" as="offset"/>
                    </mxGeometry>
                </mxCell>
                <mxCell id="tn4qRuFnmqHaKZbaOXFV-115" value="" style="endArrow=classic;html=1;rounded=0;fontColor=#0000ff;" parent="tn4qRuFnmqHaKZbaOXFV-168" edge="1">
                    <mxGeometry relative="1" as="geometry">
                        <mxPoint y="162" as="sourcePoint"/>
                        <mxPoint x="70" y="162" as="targetPoint"/>
                    </mxGeometry>
                </mxCell>
                <mxCell id="tn4qRuFnmqHaKZbaOXFV-116" value="DFF_ERROR_1_2" style="edgeLabel;resizable=0;html=1;align=center;verticalAlign=middle;fontSize=5;fontColor=#0000ff;container=0;" parent="tn4qRuFnmqHaKZbaOXFV-115" connectable="0" vertex="1">
                    <mxGeometry relative="1" as="geometry"/>
                </mxCell>
                <mxCell id="tn4qRuFnmqHaKZbaOXFV-117" value="ERR_CNT_1_2" style="edgeLabel;resizable=0;html=1;align=left;verticalAlign=bottom;fontSize=5;fontColor=#0000ff;container=0;" parent="tn4qRuFnmqHaKZbaOXFV-115" connectable="0" vertex="1">
                    <mxGeometry x="-1" relative="1" as="geometry">
                        <mxPoint x="-30" as="offset"/>
                    </mxGeometry>
                </mxCell>
                <mxCell id="tn4qRuFnmqHaKZbaOXFV-118" value="" style="endArrow=classic;html=1;rounded=0;fontColor=#0000ff;" parent="tn4qRuFnmqHaKZbaOXFV-168" edge="1">
                    <mxGeometry relative="1" as="geometry">
                        <mxPoint y="172" as="sourcePoint"/>
                        <mxPoint x="70" y="172" as="targetPoint"/>
                    </mxGeometry>
                </mxCell>
                <mxCell id="tn4qRuFnmqHaKZbaOXFV-119" value="DFF_ERROR_1_3" style="edgeLabel;resizable=0;html=1;align=center;verticalAlign=middle;fontSize=5;fontColor=#0000ff;container=0;" parent="tn4qRuFnmqHaKZbaOXFV-118" connectable="0" vertex="1">
                    <mxGeometry relative="1" as="geometry"/>
                </mxCell>
                <mxCell id="tn4qRuFnmqHaKZbaOXFV-120" value="ERR_CNT_1_3" style="edgeLabel;resizable=0;html=1;align=left;verticalAlign=bottom;fontSize=5;fontColor=#0000ff;container=0;" parent="tn4qRuFnmqHaKZbaOXFV-118" connectable="0" vertex="1">
                    <mxGeometry x="-1" relative="1" as="geometry">
                        <mxPoint x="-30" as="offset"/>
                    </mxGeometry>
                </mxCell>
                <mxCell id="tn4qRuFnmqHaKZbaOXFV-121" value="" style="endArrow=classic;html=1;rounded=0;fontColor=#0000ff;" parent="tn4qRuFnmqHaKZbaOXFV-168" edge="1">
                    <mxGeometry relative="1" as="geometry">
                        <mxPoint y="182" as="sourcePoint"/>
                        <mxPoint x="70" y="182" as="targetPoint"/>
                    </mxGeometry>
                </mxCell>
                <mxCell id="tn4qRuFnmqHaKZbaOXFV-122" value="DFF_ERROR_1_4" style="edgeLabel;resizable=0;html=1;align=center;verticalAlign=middle;fontSize=5;fontColor=#0000ff;container=0;" parent="tn4qRuFnmqHaKZbaOXFV-121" connectable="0" vertex="1">
                    <mxGeometry relative="1" as="geometry"/>
                </mxCell>
                <mxCell id="tn4qRuFnmqHaKZbaOXFV-123" value="ERR_CNT_1_4" style="edgeLabel;resizable=0;html=1;align=left;verticalAlign=bottom;fontSize=5;fontColor=#0000ff;container=0;" parent="tn4qRuFnmqHaKZbaOXFV-121" connectable="0" vertex="1">
                    <mxGeometry x="-1" relative="1" as="geometry">
                        <mxPoint x="-30" as="offset"/>
                    </mxGeometry>
                </mxCell>
                <mxCell id="tn4qRuFnmqHaKZbaOXFV-124" value="" style="endArrow=classic;html=1;rounded=0;fontColor=#0000ff;" parent="tn4qRuFnmqHaKZbaOXFV-168" edge="1">
                    <mxGeometry relative="1" as="geometry">
                        <mxPoint y="192" as="sourcePoint"/>
                        <mxPoint x="70" y="192" as="targetPoint"/>
                    </mxGeometry>
                </mxCell>
                <mxCell id="tn4qRuFnmqHaKZbaOXFV-125" value="DFF_ERROR_1_5" style="edgeLabel;resizable=0;html=1;align=center;verticalAlign=middle;fontSize=5;fontColor=#0000ff;container=0;" parent="tn4qRuFnmqHaKZbaOXFV-124" connectable="0" vertex="1">
                    <mxGeometry relative="1" as="geometry"/>
                </mxCell>
                <mxCell id="tn4qRuFnmqHaKZbaOXFV-126" value="ERR_CNT_1_5" style="edgeLabel;resizable=0;html=1;align=left;verticalAlign=bottom;fontSize=5;fontColor=#0000ff;container=0;" parent="tn4qRuFnmqHaKZbaOXFV-124" connectable="0" vertex="1">
                    <mxGeometry x="-1" relative="1" as="geometry">
                        <mxPoint x="-30" as="offset"/>
                    </mxGeometry>
                </mxCell>
                <mxCell id="tn4qRuFnmqHaKZbaOXFV-127" value="" style="endArrow=classic;html=1;rounded=0;fontColor=#0000ff;" parent="tn4qRuFnmqHaKZbaOXFV-168" edge="1">
                    <mxGeometry relative="1" as="geometry">
                        <mxPoint y="202" as="sourcePoint"/>
                        <mxPoint x="70" y="202" as="targetPoint"/>
                    </mxGeometry>
                </mxCell>
                <mxCell id="tn4qRuFnmqHaKZbaOXFV-128" value="DFF_ERROR_1_6" style="edgeLabel;resizable=0;html=1;align=center;verticalAlign=middle;fontSize=5;fontColor=#0000ff;container=0;" parent="tn4qRuFnmqHaKZbaOXFV-127" connectable="0" vertex="1">
                    <mxGeometry relative="1" as="geometry"/>
                </mxCell>
                <mxCell id="tn4qRuFnmqHaKZbaOXFV-129" value="ERR_CNT_1_6" style="edgeLabel;resizable=0;html=1;align=left;verticalAlign=bottom;fontSize=5;fontColor=#0000ff;container=0;" parent="tn4qRuFnmqHaKZbaOXFV-127" connectable="0" vertex="1">
                    <mxGeometry x="-1" relative="1" as="geometry">
                        <mxPoint x="-30" as="offset"/>
                    </mxGeometry>
                </mxCell>
                <mxCell id="tn4qRuFnmqHaKZbaOXFV-130" value="" style="endArrow=classic;html=1;rounded=0;fontColor=#0000ff;" parent="tn4qRuFnmqHaKZbaOXFV-168" edge="1">
                    <mxGeometry relative="1" as="geometry">
                        <mxPoint y="212" as="sourcePoint"/>
                        <mxPoint x="70" y="212" as="targetPoint"/>
                    </mxGeometry>
                </mxCell>
                <mxCell id="tn4qRuFnmqHaKZbaOXFV-131" value="DFF_ERROR_1_7" style="edgeLabel;resizable=0;html=1;align=center;verticalAlign=middle;fontSize=5;fontColor=#0000ff;container=0;" parent="tn4qRuFnmqHaKZbaOXFV-130" connectable="0" vertex="1">
                    <mxGeometry relative="1" as="geometry"/>
                </mxCell>
                <mxCell id="tn4qRuFnmqHaKZbaOXFV-132" value="ERR_CNT_1_7" style="edgeLabel;resizable=0;html=1;align=left;verticalAlign=bottom;fontSize=5;fontColor=#0000ff;container=0;" parent="tn4qRuFnmqHaKZbaOXFV-130" connectable="0" vertex="1">
                    <mxGeometry x="-1" relative="1" as="geometry">
                        <mxPoint x="-30" as="offset"/>
                    </mxGeometry>
                </mxCell>
                <mxCell id="tn4qRuFnmqHaKZbaOXFV-133" value="" style="endArrow=classic;html=1;rounded=0;fontColor=#0000ff;" parent="tn4qRuFnmqHaKZbaOXFV-168" edge="1">
                    <mxGeometry relative="1" as="geometry">
                        <mxPoint y="222" as="sourcePoint"/>
                        <mxPoint x="70" y="222" as="targetPoint"/>
                    </mxGeometry>
                </mxCell>
                <mxCell id="tn4qRuFnmqHaKZbaOXFV-134" value="DFF_ERROR_1_8" style="edgeLabel;resizable=0;html=1;align=center;verticalAlign=middle;fontSize=5;fontColor=#0000ff;container=0;" parent="tn4qRuFnmqHaKZbaOXFV-133" connectable="0" vertex="1">
                    <mxGeometry relative="1" as="geometry"/>
                </mxCell>
                <mxCell id="tn4qRuFnmqHaKZbaOXFV-135" value="ERR_CNT_1_8" style="edgeLabel;resizable=0;html=1;align=left;verticalAlign=bottom;fontSize=5;fontColor=#0000ff;container=0;" parent="tn4qRuFnmqHaKZbaOXFV-133" connectable="0" vertex="1">
                    <mxGeometry x="-1" relative="1" as="geometry">
                        <mxPoint x="-30" as="offset"/>
                    </mxGeometry>
                </mxCell>
                <mxCell id="tn4qRuFnmqHaKZbaOXFV-136" value="" style="endArrow=classic;html=1;rounded=0;fontColor=#0000ff;" parent="tn4qRuFnmqHaKZbaOXFV-168" edge="1">
                    <mxGeometry relative="1" as="geometry">
                        <mxPoint y="232" as="sourcePoint"/>
                        <mxPoint x="70" y="232" as="targetPoint"/>
                    </mxGeometry>
                </mxCell>
                <mxCell id="tn4qRuFnmqHaKZbaOXFV-137" value="DFF_ERROR_1_9" style="edgeLabel;resizable=0;html=1;align=center;verticalAlign=middle;fontSize=5;fontColor=#0000ff;container=0;" parent="tn4qRuFnmqHaKZbaOXFV-136" connectable="0" vertex="1">
                    <mxGeometry relative="1" as="geometry"/>
                </mxCell>
                <mxCell id="tn4qRuFnmqHaKZbaOXFV-138" value="ERR_CNT_1_9" style="edgeLabel;resizable=0;html=1;align=left;verticalAlign=bottom;fontSize=5;fontColor=#0000ff;container=0;" parent="tn4qRuFnmqHaKZbaOXFV-136" connectable="0" vertex="1">
                    <mxGeometry x="-1" relative="1" as="geometry">
                        <mxPoint x="-30" as="offset"/>
                    </mxGeometry>
                </mxCell>
                <mxCell id="tn4qRuFnmqHaKZbaOXFV-139" value="" style="endArrow=classic;html=1;rounded=0;" parent="tn4qRuFnmqHaKZbaOXFV-168" edge="1">
                    <mxGeometry relative="1" as="geometry">
                        <mxPoint x="312" y="120" as="sourcePoint"/>
                        <mxPoint x="400" y="120" as="targetPoint"/>
                    </mxGeometry>
                </mxCell>
                <mxCell id="tn4qRuFnmqHaKZbaOXFV-140" value="DATA_OUT" style="edgeLabel;resizable=0;html=1;align=center;verticalAlign=middle;fontColor=#FF7B00;fontSize=7;container=0;" parent="tn4qRuFnmqHaKZbaOXFV-139" connectable="0" vertex="1">
                    <mxGeometry relative="1" as="geometry">
                        <mxPoint x="-6" as="offset"/>
                    </mxGeometry>
                </mxCell>
                <mxCell id="tn4qRuFnmqHaKZbaOXFV-142" value="RPi GPIO_10" style="edgeLabel;resizable=0;html=1;align=right;verticalAlign=bottom;fontColor=#FF7B00;fontSize=7;container=0;" parent="tn4qRuFnmqHaKZbaOXFV-139" connectable="0" vertex="1">
                    <mxGeometry x="1" relative="1" as="geometry">
                        <mxPoint x="30" as="offset"/>
                    </mxGeometry>
                </mxCell>
                <mxCell id="88" value="" style="group" vertex="1" connectable="0" parent="1">
                    <mxGeometry x="1710" y="1410" width="440" height="240" as="geometry"/>
                </mxCell>
                <mxCell id="tn4qRuFnmqHaKZbaOXFV-223" value="RO_FREQUENCY_COUNTER" style="whiteSpace=wrap;html=1;aspect=fixed;" parent="88" vertex="1">
                    <mxGeometry x="80" width="240" height="240" as="geometry"/>
                </mxCell>
                <mxCell id="tn4qRuFnmqHaKZbaOXFV-224" value="" style="endArrow=classic;html=1;rounded=0;" parent="88" edge="1">
                    <mxGeometry relative="1" as="geometry">
                        <mxPoint y="60" as="sourcePoint"/>
                        <mxPoint x="80" y="60" as="targetPoint"/>
                    </mxGeometry>
                </mxCell>
                <mxCell id="tn4qRuFnmqHaKZbaOXFV-225" value="CLK" style="edgeLabel;resizable=0;html=1;align=center;verticalAlign=middle;" parent="tn4qRuFnmqHaKZbaOXFV-224" connectable="0" vertex="1">
                    <mxGeometry relative="1" as="geometry"/>
                </mxCell>
                <mxCell id="tn4qRuFnmqHaKZbaOXFV-226" value="CLK_MUXOUT" style="edgeLabel;resizable=0;html=1;align=left;verticalAlign=bottom;" parent="tn4qRuFnmqHaKZbaOXFV-224" connectable="0" vertex="1">
                    <mxGeometry x="-1" relative="1" as="geometry">
                        <mxPoint x="-50" as="offset"/>
                    </mxGeometry>
                </mxCell>
                <mxCell id="tn4qRuFnmqHaKZbaOXFV-227" value="" style="endArrow=classic;html=1;rounded=0;" parent="88" edge="1">
                    <mxGeometry relative="1" as="geometry">
                        <mxPoint y="90" as="sourcePoint"/>
                        <mxPoint x="80" y="90" as="targetPoint"/>
                    </mxGeometry>
                </mxCell>
                <mxCell id="tn4qRuFnmqHaKZbaOXFV-228" value="read_data" style="edgeLabel;resizable=0;html=1;align=center;verticalAlign=middle;" parent="tn4qRuFnmqHaKZbaOXFV-227" connectable="0" vertex="1">
                    <mxGeometry relative="1" as="geometry"/>
                </mxCell>
                <mxCell id="tn4qRuFnmqHaKZbaOXFV-229" value="read_data_pi" style="edgeLabel;resizable=0;html=1;align=left;verticalAlign=bottom;" parent="tn4qRuFnmqHaKZbaOXFV-227" connectable="0" vertex="1">
                    <mxGeometry x="-1" relative="1" as="geometry">
                        <mxPoint x="-50" as="offset"/>
                    </mxGeometry>
                </mxCell>
                <mxCell id="tn4qRuFnmqHaKZbaOXFV-230" value="" style="endArrow=classic;html=1;rounded=0;" parent="88" edge="1">
                    <mxGeometry relative="1" as="geometry">
                        <mxPoint y="120" as="sourcePoint"/>
                        <mxPoint x="80" y="120" as="targetPoint"/>
                        <Array as="points">
                            <mxPoint x="40" y="120"/>
                        </Array>
                    </mxGeometry>
                </mxCell>
                <mxCell id="tn4qRuFnmqHaKZbaOXFV-231" value="O_INV" style="edgeLabel;resizable=0;html=1;align=center;verticalAlign=middle;" parent="tn4qRuFnmqHaKZbaOXFV-230" connectable="0" vertex="1">
                    <mxGeometry relative="1" as="geometry"/>
                </mxCell>
                <mxCell id="tn4qRuFnmqHaKZbaOXFV-232" value="O_INV" style="edgeLabel;resizable=0;html=1;align=left;verticalAlign=bottom;" parent="tn4qRuFnmqHaKZbaOXFV-230" connectable="0" vertex="1">
                    <mxGeometry x="-1" relative="1" as="geometry">
                        <mxPoint x="-20" as="offset"/>
                    </mxGeometry>
                </mxCell>
                <mxCell id="tn4qRuFnmqHaKZbaOXFV-233" value="" style="endArrow=classic;html=1;rounded=0;" parent="88" edge="1">
                    <mxGeometry relative="1" as="geometry">
                        <mxPoint y="149.68000000000006" as="sourcePoint"/>
                        <mxPoint x="80" y="149.68000000000006" as="targetPoint"/>
                    </mxGeometry>
                </mxCell>
                <mxCell id="tn4qRuFnmqHaKZbaOXFV-234" value="O_NAND" style="edgeLabel;resizable=0;html=1;align=center;verticalAlign=middle;" parent="tn4qRuFnmqHaKZbaOXFV-233" connectable="0" vertex="1">
                    <mxGeometry relative="1" as="geometry"/>
                </mxCell>
                <mxCell id="tn4qRuFnmqHaKZbaOXFV-235" value="O_NAND" style="edgeLabel;resizable=0;html=1;align=left;verticalAlign=bottom;" parent="tn4qRuFnmqHaKZbaOXFV-233" connectable="0" vertex="1">
                    <mxGeometry x="-1" relative="1" as="geometry">
                        <mxPoint x="-30" as="offset"/>
                    </mxGeometry>
                </mxCell>
                <mxCell id="tn4qRuFnmqHaKZbaOXFV-236" value="" style="endArrow=classic;html=1;rounded=0;" parent="88" edge="1">
                    <mxGeometry relative="1" as="geometry">
                        <mxPoint y="180" as="sourcePoint"/>
                        <mxPoint x="80" y="180" as="targetPoint"/>
                    </mxGeometry>
                </mxCell>
                <mxCell id="tn4qRuFnmqHaKZbaOXFV-237" value="O_NOR" style="edgeLabel;resizable=0;html=1;align=center;verticalAlign=middle;" parent="tn4qRuFnmqHaKZbaOXFV-236" connectable="0" vertex="1">
                    <mxGeometry relative="1" as="geometry"/>
                </mxCell>
                <mxCell id="tn4qRuFnmqHaKZbaOXFV-238" value="O_NOR" style="edgeLabel;resizable=0;html=1;align=left;verticalAlign=bottom;" parent="tn4qRuFnmqHaKZbaOXFV-236" connectable="0" vertex="1">
                    <mxGeometry x="-1" relative="1" as="geometry">
                        <mxPoint x="-20" as="offset"/>
                    </mxGeometry>
                </mxCell>
                <mxCell id="66" value="" style="endArrow=classic;html=1;" edge="1" parent="88">
                    <mxGeometry relative="1" as="geometry">
                        <mxPoint x="320" y="80" as="sourcePoint"/>
                        <mxPoint x="440" y="80" as="targetPoint"/>
                    </mxGeometry>
                </mxCell>
                <mxCell id="67" value="INV_COUNT" style="edgeLabel;resizable=0;html=1;align=center;verticalAlign=middle;" connectable="0" vertex="1" parent="66">
                    <mxGeometry relative="1" as="geometry"/>
                </mxCell>
                <mxCell id="69" value="RO_DATA_OUTPUT" style="edgeLabel;resizable=0;html=1;align=right;verticalAlign=bottom;" connectable="0" vertex="1" parent="66">
                    <mxGeometry x="1" relative="1" as="geometry">
                        <mxPoint x="80" as="offset"/>
                    </mxGeometry>
                </mxCell>
                <mxCell id="82" value="" style="endArrow=classic;html=1;" edge="1" parent="88">
                    <mxGeometry relative="1" as="geometry">
                        <mxPoint x="320" y="119.75999999999976" as="sourcePoint"/>
                        <mxPoint x="440" y="119.75999999999976" as="targetPoint"/>
                    </mxGeometry>
                </mxCell>
                <mxCell id="83" value="NAND_COUNT" style="edgeLabel;resizable=0;html=1;align=center;verticalAlign=middle;" connectable="0" vertex="1" parent="82">
                    <mxGeometry relative="1" as="geometry"/>
                </mxCell>
                <mxCell id="84" value="RO_DATA_OUTPUT" style="edgeLabel;resizable=0;html=1;align=right;verticalAlign=bottom;" connectable="0" vertex="1" parent="82">
                    <mxGeometry x="1" relative="1" as="geometry">
                        <mxPoint x="80" as="offset"/>
                    </mxGeometry>
                </mxCell>
                <mxCell id="85" value="" style="endArrow=classic;html=1;" edge="1" parent="88">
                    <mxGeometry relative="1" as="geometry">
                        <mxPoint x="320" y="159.99999999999977" as="sourcePoint"/>
                        <mxPoint x="440" y="159.99999999999977" as="targetPoint"/>
                    </mxGeometry>
                </mxCell>
                <mxCell id="86" value="NOR_COUNT" style="edgeLabel;resizable=0;html=1;align=center;verticalAlign=middle;" connectable="0" vertex="1" parent="85">
                    <mxGeometry relative="1" as="geometry"/>
                </mxCell>
                <mxCell id="87" value="RO_DATA_OUTPUT" style="edgeLabel;resizable=0;html=1;align=right;verticalAlign=bottom;" connectable="0" vertex="1" parent="85">
                    <mxGeometry x="1" relative="1" as="geometry">
                        <mxPoint x="80" as="offset"/>
                    </mxGeometry>
                </mxCell>
                <mxCell id="89" value="" style="group" vertex="1" connectable="0" parent="1">
                    <mxGeometry x="1720" y="1150" width="390" height="240" as="geometry"/>
                </mxCell>
                <mxCell id="tn4qRuFnmqHaKZbaOXFV-173" value="RO_DATA_OUTPUT" style="whiteSpace=wrap;html=1;aspect=fixed;" parent="89" vertex="1">
                    <mxGeometry x="70" width="240" height="240" as="geometry"/>
                </mxCell>
                <mxCell id="tn4qRuFnmqHaKZbaOXFV-177" value="" style="endArrow=classic;html=1;rounded=0;" parent="89" edge="1">
                    <mxGeometry relative="1" as="geometry">
                        <mxPoint y="30" as="sourcePoint"/>
                        <mxPoint x="70" y="30" as="targetPoint"/>
                    </mxGeometry>
                </mxCell>
                <mxCell id="tn4qRuFnmqHaKZbaOXFV-178" value="data_clk" style="edgeLabel;resizable=0;html=1;align=center;verticalAlign=middle;" parent="tn4qRuFnmqHaKZbaOXFV-177" connectable="0" vertex="1">
                    <mxGeometry relative="1" as="geometry"/>
                </mxCell>
                <mxCell id="tn4qRuFnmqHaKZbaOXFV-179" value="RPi GPIO_33" style="edgeLabel;resizable=0;html=1;align=left;verticalAlign=bottom;fontSize=6;" parent="tn4qRuFnmqHaKZbaOXFV-177" connectable="0" vertex="1">
                    <mxGeometry x="-1" relative="1" as="geometry">
                        <mxPoint x="-20" as="offset"/>
                    </mxGeometry>
                </mxCell>
                <mxCell id="tn4qRuFnmqHaKZbaOXFV-180" value="" style="endArrow=classic;html=1;rounded=0;" parent="89" edge="1">
                    <mxGeometry relative="1" as="geometry">
                        <mxPoint y="50" as="sourcePoint"/>
                        <mxPoint x="70" y="50" as="targetPoint"/>
                    </mxGeometry>
                </mxCell>
                <mxCell id="tn4qRuFnmqHaKZbaOXFV-181" value="reset" style="edgeLabel;resizable=0;html=1;align=center;verticalAlign=middle;" parent="tn4qRuFnmqHaKZbaOXFV-180" connectable="0" vertex="1">
                    <mxGeometry relative="1" as="geometry"/>
                </mxCell>
                <mxCell id="tn4qRuFnmqHaKZbaOXFV-182" value="RPi GPIO_5" style="edgeLabel;resizable=0;html=1;align=left;verticalAlign=bottom;fontSize=6;" parent="tn4qRuFnmqHaKZbaOXFV-180" connectable="0" vertex="1">
                    <mxGeometry x="-1" relative="1" as="geometry">
                        <mxPoint x="-20" as="offset"/>
                    </mxGeometry>
                </mxCell>
                <mxCell id="tn4qRuFnmqHaKZbaOXFV-183" value="" style="endArrow=classic;html=1;rounded=0;" parent="89" edge="1">
                    <mxGeometry relative="1" as="geometry">
                        <mxPoint y="70" as="sourcePoint"/>
                        <mxPoint x="70" y="70" as="targetPoint"/>
                    </mxGeometry>
                </mxCell>
                <mxCell id="tn4qRuFnmqHaKZbaOXFV-184" value="&lt;font style=&quot;font-size: 7px;&quot;&gt;INV_COUNT0&lt;/font&gt;" style="edgeLabel;resizable=0;html=1;align=center;verticalAlign=middle;" parent="tn4qRuFnmqHaKZbaOXFV-183" connectable="0" vertex="1">
                    <mxGeometry relative="1" as="geometry"/>
                </mxCell>
                <mxCell id="tn4qRuFnmqHaKZbaOXFV-185" value="RPi" style="edgeLabel;resizable=0;html=1;align=left;verticalAlign=bottom;" parent="tn4qRuFnmqHaKZbaOXFV-183" connectable="0" vertex="1">
                    <mxGeometry x="-1" relative="1" as="geometry">
                        <mxPoint x="-30" as="offset"/>
                    </mxGeometry>
                </mxCell>
                <mxCell id="tn4qRuFnmqHaKZbaOXFV-186" value="" style="endArrow=classic;html=1;rounded=0;" parent="89" edge="1">
                    <mxGeometry relative="1" as="geometry">
                        <mxPoint y="90" as="sourcePoint"/>
                        <mxPoint x="70" y="90" as="targetPoint"/>
                    </mxGeometry>
                </mxCell>
                <mxCell id="tn4qRuFnmqHaKZbaOXFV-187" value="&lt;font style=&quot;font-size: 7px;&quot;&gt;NAND_COUNT0&lt;br&gt;&lt;/font&gt;" style="edgeLabel;resizable=0;html=1;align=center;verticalAlign=middle;" parent="tn4qRuFnmqHaKZbaOXFV-186" connectable="0" vertex="1">
                    <mxGeometry relative="1" as="geometry"/>
                </mxCell>
                <mxCell id="tn4qRuFnmqHaKZbaOXFV-188" value="RPi" style="edgeLabel;resizable=0;html=1;align=left;verticalAlign=bottom;" parent="tn4qRuFnmqHaKZbaOXFV-186" connectable="0" vertex="1">
                    <mxGeometry x="-1" relative="1" as="geometry">
                        <mxPoint x="-30" as="offset"/>
                    </mxGeometry>
                </mxCell>
                <mxCell id="tn4qRuFnmqHaKZbaOXFV-189" value="" style="endArrow=classic;html=1;rounded=0;" parent="89" edge="1">
                    <mxGeometry relative="1" as="geometry">
                        <mxPoint y="110" as="sourcePoint"/>
                        <mxPoint x="70" y="110" as="targetPoint"/>
                    </mxGeometry>
                </mxCell>
                <mxCell id="tn4qRuFnmqHaKZbaOXFV-190" value="&lt;font style=&quot;font-size: 7px;&quot;&gt;NOR_COUNT0&lt;/font&gt;" style="edgeLabel;resizable=0;html=1;align=center;verticalAlign=middle;" parent="tn4qRuFnmqHaKZbaOXFV-189" connectable="0" vertex="1">
                    <mxGeometry relative="1" as="geometry"/>
                </mxCell>
                <mxCell id="tn4qRuFnmqHaKZbaOXFV-191" value="RPi" style="edgeLabel;resizable=0;html=1;align=left;verticalAlign=bottom;" parent="tn4qRuFnmqHaKZbaOXFV-189" connectable="0" vertex="1">
                    <mxGeometry x="-1" relative="1" as="geometry">
                        <mxPoint x="-30" as="offset"/>
                    </mxGeometry>
                </mxCell>
                <mxCell id="tn4qRuFnmqHaKZbaOXFV-195" value="" style="endArrow=classic;html=1;rounded=0;" parent="89" edge="1">
                    <mxGeometry relative="1" as="geometry">
                        <mxPoint y="130" as="sourcePoint"/>
                        <mxPoint x="70" y="130" as="targetPoint"/>
                    </mxGeometry>
                </mxCell>
                <mxCell id="tn4qRuFnmqHaKZbaOXFV-196" value="&lt;font style=&quot;font-size: 4px;&quot;&gt;DividerOutput_COUNT0&lt;/font&gt;" style="edgeLabel;resizable=0;html=1;align=center;verticalAlign=middle;" parent="tn4qRuFnmqHaKZbaOXFV-195" connectable="0" vertex="1">
                    <mxGeometry relative="1" as="geometry"/>
                </mxCell>
                <mxCell id="tn4qRuFnmqHaKZbaOXFV-197" value="RPi" style="edgeLabel;resizable=0;html=1;align=left;verticalAlign=bottom;" parent="tn4qRuFnmqHaKZbaOXFV-195" connectable="0" vertex="1">
                    <mxGeometry x="-1" relative="1" as="geometry">
                        <mxPoint x="-30" as="offset"/>
                    </mxGeometry>
                </mxCell>
                <mxCell id="tn4qRuFnmqHaKZbaOXFV-198" value="" style="endArrow=classic;html=1;rounded=0;" parent="89" edge="1">
                    <mxGeometry relative="1" as="geometry">
                        <mxPoint y="150" as="sourcePoint"/>
                        <mxPoint x="70" y="150" as="targetPoint"/>
                    </mxGeometry>
                </mxCell>
                <mxCell id="tn4qRuFnmqHaKZbaOXFV-199" value="&lt;font style=&quot;font-size: 7px;&quot;&gt;INV_COUNT1&lt;/font&gt;" style="edgeLabel;resizable=0;html=1;align=center;verticalAlign=middle;" parent="tn4qRuFnmqHaKZbaOXFV-198" connectable="0" vertex="1">
                    <mxGeometry relative="1" as="geometry"/>
                </mxCell>
                <mxCell id="tn4qRuFnmqHaKZbaOXFV-200" value="RPi" style="edgeLabel;resizable=0;html=1;align=left;verticalAlign=bottom;" parent="tn4qRuFnmqHaKZbaOXFV-198" connectable="0" vertex="1">
                    <mxGeometry x="-1" relative="1" as="geometry">
                        <mxPoint x="-30" as="offset"/>
                    </mxGeometry>
                </mxCell>
                <mxCell id="tn4qRuFnmqHaKZbaOXFV-201" value="" style="endArrow=classic;html=1;rounded=0;" parent="89" edge="1">
                    <mxGeometry relative="1" as="geometry">
                        <mxPoint y="170" as="sourcePoint"/>
                        <mxPoint x="70" y="170" as="targetPoint"/>
                    </mxGeometry>
                </mxCell>
                <mxCell id="tn4qRuFnmqHaKZbaOXFV-202" value="&lt;font style=&quot;font-size: 7px;&quot;&gt;NAND_COUNT1&lt;/font&gt;" style="edgeLabel;resizable=0;html=1;align=center;verticalAlign=middle;" parent="tn4qRuFnmqHaKZbaOXFV-201" connectable="0" vertex="1">
                    <mxGeometry relative="1" as="geometry"/>
                </mxCell>
                <mxCell id="tn4qRuFnmqHaKZbaOXFV-203" value="RPi" style="edgeLabel;resizable=0;html=1;align=left;verticalAlign=bottom;" parent="tn4qRuFnmqHaKZbaOXFV-201" connectable="0" vertex="1">
                    <mxGeometry x="-1" relative="1" as="geometry">
                        <mxPoint x="-30" as="offset"/>
                    </mxGeometry>
                </mxCell>
                <mxCell id="tn4qRuFnmqHaKZbaOXFV-204" value="" style="endArrow=classic;html=1;rounded=0;" parent="89" edge="1">
                    <mxGeometry relative="1" as="geometry">
                        <mxPoint y="190" as="sourcePoint"/>
                        <mxPoint x="70" y="190" as="targetPoint"/>
                    </mxGeometry>
                </mxCell>
                <mxCell id="tn4qRuFnmqHaKZbaOXFV-205" value="&lt;font style=&quot;font-size: 7px;&quot;&gt;NOR_COUNT1&lt;/font&gt;" style="edgeLabel;resizable=0;html=1;align=center;verticalAlign=middle;" parent="tn4qRuFnmqHaKZbaOXFV-204" connectable="0" vertex="1">
                    <mxGeometry relative="1" as="geometry"/>
                </mxCell>
                <mxCell id="tn4qRuFnmqHaKZbaOXFV-206" value="RPi" style="edgeLabel;resizable=0;html=1;align=left;verticalAlign=bottom;" parent="tn4qRuFnmqHaKZbaOXFV-204" connectable="0" vertex="1">
                    <mxGeometry x="-1" relative="1" as="geometry">
                        <mxPoint x="-30" as="offset"/>
                    </mxGeometry>
                </mxCell>
                <mxCell id="tn4qRuFnmqHaKZbaOXFV-207" value="" style="endArrow=classic;html=1;rounded=0;" parent="89" edge="1">
                    <mxGeometry relative="1" as="geometry">
                        <mxPoint y="210" as="sourcePoint"/>
                        <mxPoint x="70" y="210" as="targetPoint"/>
                    </mxGeometry>
                </mxCell>
                <mxCell id="tn4qRuFnmqHaKZbaOXFV-208" value="&lt;font style=&quot;font-size: 4px;&quot;&gt;DividerOutput_COUNT1&lt;/font&gt;" style="edgeLabel;resizable=0;html=1;align=center;verticalAlign=middle;" parent="tn4qRuFnmqHaKZbaOXFV-207" connectable="0" vertex="1">
                    <mxGeometry relative="1" as="geometry"/>
                </mxCell>
                <mxCell id="tn4qRuFnmqHaKZbaOXFV-209" value="RPi" style="edgeLabel;resizable=0;html=1;align=left;verticalAlign=bottom;" parent="tn4qRuFnmqHaKZbaOXFV-207" connectable="0" vertex="1">
                    <mxGeometry x="-1" relative="1" as="geometry">
                        <mxPoint x="-30" as="offset"/>
                    </mxGeometry>
                </mxCell>
                <mxCell id="tn4qRuFnmqHaKZbaOXFV-213" value="" style="endArrow=classic;html=1;rounded=0;fontSize=11;" parent="89" edge="1">
                    <mxGeometry relative="1" as="geometry">
                        <mxPoint x="310" y="100" as="sourcePoint"/>
                        <mxPoint x="390" y="100" as="targetPoint"/>
                    </mxGeometry>
                </mxCell>
                <mxCell id="tn4qRuFnmqHaKZbaOXFV-214" value="DATA_OUT" style="edgeLabel;resizable=0;html=1;align=center;verticalAlign=middle;" parent="tn4qRuFnmqHaKZbaOXFV-213" connectable="0" vertex="1">
                    <mxGeometry relative="1" as="geometry"/>
                </mxCell>
                <mxCell id="tn4qRuFnmqHaKZbaOXFV-216" value="RPI GPIO_35" style="edgeLabel;resizable=0;html=1;align=right;verticalAlign=bottom;fontSize=9;" parent="tn4qRuFnmqHaKZbaOXFV-213" connectable="0" vertex="1">
                    <mxGeometry x="1" relative="1" as="geometry">
                        <mxPoint x="50" as="offset"/>
                    </mxGeometry>
                </mxCell>
                <mxCell id="tn4qRuFnmqHaKZbaOXFV-217" value="" style="endArrow=classic;html=1;rounded=0;" parent="89" edge="1">
                    <mxGeometry relative="1" as="geometry">
                        <mxPoint x="310" y="130" as="sourcePoint"/>
                        <mxPoint x="390" y="130" as="targetPoint"/>
                    </mxGeometry>
                </mxCell>
                <mxCell id="tn4qRuFnmqHaKZbaOXFV-218" value="C" style="edgeLabel;resizable=0;html=1;align=center;verticalAlign=middle;" parent="tn4qRuFnmqHaKZbaOXFV-217" connectable="0" vertex="1">
                    <mxGeometry relative="1" as="geometry"/>
                </mxCell>
                <mxCell id="tn4qRuFnmqHaKZbaOXFV-219" value="No Target" style="edgeLabel;resizable=0;html=1;align=right;verticalAlign=bottom;" parent="tn4qRuFnmqHaKZbaOXFV-217" connectable="0" vertex="1">
                    <mxGeometry x="1" relative="1" as="geometry">
                        <mxPoint x="40" as="offset"/>
                    </mxGeometry>
                </mxCell>
                <mxCell id="90" value="" style="group" vertex="1" connectable="0" parent="1">
                    <mxGeometry x="1950" y="166" width="512" height="362" as="geometry"/>
                </mxCell>
                <mxCell id="2" value="CLK_GEN_TOP" style="whiteSpace=wrap;html=1;aspect=fixed;" parent="90" vertex="1">
                    <mxGeometry x="80" width="362" height="362" as="geometry"/>
                </mxCell>
                <mxCell id="36" value="5" style="endArrow=classic;html=1;fontSize=8;fontColor=#0000ff;" parent="90" edge="1">
                    <mxGeometry relative="1" as="geometry">
                        <mxPoint y="154" as="sourcePoint"/>
                        <mxPoint x="80" y="154" as="targetPoint"/>
                    </mxGeometry>
                </mxCell>
                <mxCell id="37" value="CLK_50M" style="edgeLabel;resizable=0;html=1;align=center;verticalAlign=middle;fontSize=8;fontColor=#0000ff;" parent="36" connectable="0" vertex="1">
                    <mxGeometry relative="1" as="geometry"/>
                </mxCell>
                <mxCell id="38" value="Crystal Oscillator" style="edgeLabel;resizable=0;html=1;align=left;verticalAlign=bottom;fontSize=8;fontColor=#0000ff;" parent="36" connectable="0" vertex="1">
                    <mxGeometry x="-1" relative="1" as="geometry">
                        <mxPoint x="-40" as="offset"/>
                    </mxGeometry>
                </mxCell>
                <mxCell id="42" value="" style="endArrow=classic;html=1;fontSize=8;fontColor=#0000ff;" parent="90" edge="1">
                    <mxGeometry relative="1" as="geometry">
                        <mxPoint y="202" as="sourcePoint"/>
                        <mxPoint x="80" y="202" as="targetPoint"/>
                    </mxGeometry>
                </mxCell>
                <mxCell id="43" value="CLK_CTL" style="edgeLabel;resizable=0;html=1;align=center;verticalAlign=middle;fontSize=8;fontColor=#0000ff;" parent="42" connectable="0" vertex="1">
                    <mxGeometry relative="1" as="geometry"/>
                </mxCell>
                <mxCell id="45" value="" style="endArrow=classic;html=1;fontSize=8;" parent="90" edge="1">
                    <mxGeometry relative="1" as="geometry">
                        <mxPoint x="442" y="83" as="sourcePoint"/>
                        <mxPoint x="512" y="83" as="targetPoint"/>
                    </mxGeometry>
                </mxCell>
                <mxCell id="46" value="CLK_400M" style="edgeLabel;resizable=0;html=1;align=center;verticalAlign=middle;fontSize=8;fontColor=#0000ff;" parent="45" connectable="0" vertex="1">
                    <mxGeometry relative="1" as="geometry"/>
                </mxCell>
                <mxCell id="49" value="" style="endArrow=classic;html=1;fontSize=8;" parent="90" edge="1">
                    <mxGeometry relative="1" as="geometry">
                        <mxPoint x="442" y="113" as="sourcePoint"/>
                        <mxPoint x="512" y="113" as="targetPoint"/>
                    </mxGeometry>
                </mxCell>
                <mxCell id="50" value="clk_100m" style="edgeLabel;resizable=0;html=1;align=center;verticalAlign=middle;fontSize=8;fontColor=#0000ff;" parent="49" connectable="0" vertex="1">
                    <mxGeometry relative="1" as="geometry"/>
                </mxCell>
                <mxCell id="52" value="" style="endArrow=classic;html=1;fontSize=8;" parent="90" edge="1">
                    <mxGeometry relative="1" as="geometry">
                        <mxPoint x="442" y="141" as="sourcePoint"/>
                        <mxPoint x="512" y="141" as="targetPoint"/>
                    </mxGeometry>
                </mxCell>
                <mxCell id="53" value="clk_10m" style="edgeLabel;resizable=0;html=1;align=center;verticalAlign=middle;fontSize=8;fontColor=#0000ff;" parent="52" connectable="0" vertex="1">
                    <mxGeometry relative="1" as="geometry"/>
                </mxCell>
                <mxCell id="55" value="" style="endArrow=classic;html=1;fontSize=8;" parent="90" edge="1">
                    <mxGeometry relative="1" as="geometry">
                        <mxPoint x="442" y="173" as="sourcePoint"/>
                        <mxPoint x="512" y="173" as="targetPoint"/>
                    </mxGeometry>
                </mxCell>
                <mxCell id="56" value="&lt;font style=&quot;font-size: 5px;&quot;&gt;CLK_MUXOUT&lt;/font&gt;" style="edgeLabel;resizable=0;html=1;align=center;verticalAlign=middle;fontSize=8;fontColor=#0000ff;" parent="55" connectable="0" vertex="1">
                    <mxGeometry relative="1" as="geometry"/>
                </mxCell>
                <mxCell id="58" value="" style="endArrow=classic;html=1;fontSize=8;" parent="90" edge="1">
                    <mxGeometry relative="1" as="geometry">
                        <mxPoint x="442" y="203" as="sourcePoint"/>
                        <mxPoint x="512" y="203" as="targetPoint"/>
                    </mxGeometry>
                </mxCell>
                <mxCell id="59" value="CLK_100K" style="edgeLabel;resizable=0;html=1;align=center;verticalAlign=middle;fontSize=8;fontColor=#0000ff;" parent="58" connectable="0" vertex="1">
                    <mxGeometry relative="1" as="geometry"/>
                </mxCell>
                <mxCell id="61" value="" style="endArrow=classic;html=1;fontSize=8;" parent="90" edge="1">
                    <mxGeometry relative="1" as="geometry">
                        <mxPoint x="442" y="233" as="sourcePoint"/>
                        <mxPoint x="512" y="233" as="targetPoint"/>
                    </mxGeometry>
                </mxCell>
                <mxCell id="62" value="CLK_REG" style="edgeLabel;resizable=0;html=1;align=center;verticalAlign=middle;fontSize=8;fontColor=#0000ff;" parent="61" connectable="0" vertex="1">
                    <mxGeometry relative="1" as="geometry"/>
                </mxCell>
                <mxCell id="64" value="" style="endArrow=classic;html=1;fontSize=8;" parent="90" edge="1">
                    <mxGeometry relative="1" as="geometry">
                        <mxPoint x="442" y="260.53" as="sourcePoint"/>
                        <mxPoint x="512" y="260.53" as="targetPoint"/>
                    </mxGeometry>
                </mxCell>
                <mxCell id="65" value="RST_B" style="edgeLabel;resizable=0;html=1;align=center;verticalAlign=middle;fontSize=8;fontColor=#0000ff;" parent="64" connectable="0" vertex="1">
                    <mxGeometry relative="1" as="geometry"/>
                </mxCell>
            </root>
        </mxGraphModel>
    </diagram>
</mxfile>